<?xml version="1.0" encoding="UTF-8"?><svg id="a" xmlns="http://www.w3.org/2000/svg" viewBox="0 0 1197.46 338.29"><defs><style>.b{fill:#fff;stroke-width:0px;}</style></defs><path class="b" d="m598.36,84.46V0C505.07,0,429.45,75.62,429.44,168.91c0,46.65-37.81,84.46-84.46,84.46v84.46c93.29,0,168.92-75.62,168.92-168.91,0-46.65,37.81-84.46,84.46-84.46"/><path class="b" d="m253.38,253.37H84.46V84.46h168.92v168.91Zm84.46-84.45C337.84,75.63,262.21,0,168.92,0S0,75.63,0,168.92s75.63,168.92,168.92,168.92,168.92-75.63,168.92-168.92"/><path class="b" d="m696.14,43.97c0,4.75,1.11,9.1,3.33,13.05,2.22,3.95,5.25,7.04,9.1,9.26,3.85,2.23,8.14,3.34,12.87,3.34s9.01-1.11,12.87-3.34c3.85-2.23,6.89-5.32,9.1-9.26,2.22-3.95,3.33-8.3,3.33-13.05s-1.11-9.1-3.33-13.05c-2.22-3.95-5.25-7.03-9.1-9.26-3.85-2.23-8.14-3.34-12.87-3.34s-9.01,1.12-12.87,3.34c-3.85,2.23-6.89,5.32-9.1,9.26-2.22,3.95-3.33,8.3-3.33,13.05m-15.48,0c0-7.38,1.82-14.14,5.45-20.28,3.64-6.14,8.58-11,14.83-14.58,6.25-3.58,13.09-5.37,20.5-5.37s14.25,1.79,20.5,5.37c6.25,3.58,11.2,8.44,14.83,14.58,3.64,6.14,5.45,12.9,5.45,20.28s-1.82,14.14-5.45,20.28c-3.63,6.14-8.58,11-14.83,14.58-6.25,3.58-13.08,5.37-20.5,5.37s-14.25-1.79-20.5-5.37c-6.25-3.58-11.19-8.44-14.83-14.58-3.63-6.14-5.45-12.9-5.45-20.28"/><rect class="b" x="769.81" y=".11" width="14.83" height="82.23"/><polygon class="b" points="836.2 .11 836.2 37.5 837.18 41.45 837.18 82.34 851.03 82.34 851.03 .11 836.2 .11"/><path class="b" d="m837.18,55.26c0,2.78-.64,5.32-1.91,7.62-1.27,2.3-3.02,4.09-5.23,5.37-2.22,1.28-4.67,1.92-7.36,1.92s-5.14-.64-7.36-1.92c-2.22-1.28-3.96-3.07-5.23-5.37-1.27-2.3-1.91-4.84-1.91-7.62s.64-5.3,1.91-7.57c1.27-2.26,3.02-4.06,5.23-5.37,2.22-1.32,4.67-1.97,7.36-1.97s5.14.66,7.36,1.97c2.22,1.32,3.96,3.11,5.23,5.37,1.27,2.27,1.91,4.79,1.91,7.57m6.11.11c0-5.19-.96-9.96-2.89-14.31-1.93-4.35-4.69-7.82-8.29-10.42-3.6-2.59-7.8-3.89-12.59-3.89s-9.51,1.26-13.47,3.78c-3.96,2.52-7.07,5.96-9.32,10.31-2.25,4.35-3.38,9.16-3.38,14.42s1.13,10.07,3.38,14.42c2.25,4.35,5.36,7.78,9.32,10.31,3.96,2.52,8.45,3.78,13.47,3.78s9-1.3,12.59-3.89c3.6-2.59,6.36-6.07,8.29-10.42,1.93-4.35,2.89-9.05,2.89-14.09"/><path class="b" d="m902.68,59.76h-15.27c0,4.53,1.13,8.64,3.38,12.34,2.25,3.69,5.31,6.6,9.16,8.72,3.85,2.12,8.1,3.18,12.76,3.18s8.94-1.06,12.87-3.18c3.93-2.12,7.01-5.02,9.27-8.72,2.25-3.69,3.38-7.8,3.38-12.34s-1.13-8.64-3.38-12.34c-2.25-3.69-5.31-6.6-9.16-8.72-3.85-2.12-8.11-3.18-12.76-3.18h-.11c-2.47,0-4.6-.82-6.38-2.47-1.78-1.64-2.67-3.71-2.67-6.19s.85-4.55,2.56-6.2c1.71-1.64,3.87-2.47,6.49-2.47s4.78.82,6.49,2.47c1.71,1.64,2.56,3.71,2.56,6.2h15.27c0-4.39-1.11-8.33-3.33-11.84-2.22-3.51-5.18-6.27-8.89-8.28-3.71-2.01-7.78-3.02-12.21-3.02s-8.4,1.01-12.1,3.02c-3.71,2.01-6.65,4.77-8.83,8.28-2.18,3.51-3.27,7.46-3.27,11.84s1.09,8.24,3.27,11.79c2.18,3.55,5.13,6.32,8.83,8.33,3.71,2.01,7.81,3.02,12.32,3.02h.11c2.84,0,5.2.91,7.09,2.74,1.89,1.83,2.83,4.17,2.83,7.02s-.98,5.19-2.94,7.02c-1.96,1.83-4.4,2.74-7.31,2.74s-5.31-.93-7.2-2.8c-1.89-1.86-2.84-4.18-2.84-6.96"/><path class="b" d="m983.74,27.85c-3.19-1.13-6.55-1.76-10.1-1.76-5.38,0-10.34,1.3-14.88,3.89-4.54,2.6-8.14,6.12-10.8,10.58-2.65,4.46-3.98,9.32-3.98,14.58s1.33,10.12,3.98,14.58c2.65,4.46,6.25,7.99,10.8,10.58,4.54,2.59,9.5,3.89,14.88,3.89,3.56,0,6.91-.62,10.1-1.76v-16.19c-.78.72-1.63,1.38-2.58,1.94-2.25,1.32-4.76,1.97-7.52,1.97s-5.27-.66-7.52-1.97c-2.25-1.32-4.03-3.11-5.34-5.37-1.31-2.26-1.96-4.82-1.96-7.67s.65-5.32,1.96-7.62,3.09-4.11,5.34-5.43c2.25-1.32,4.76-1.97,7.52-1.97s5.27.66,7.52,1.97c.95.56,1.8,1.22,2.58,1.95v-16.2Z"/><path class="b" d="m992.4,82.23h14.83v-30.37c0-3.36,1-6.07,3-8.11,2-2.05,4.56-3.07,7.69-3.07s5.69.99,7.69,2.96c2,1.97,3,4.71,3,8.22v30.37h14.83v-33.77c0-4.17-.87-7.88-2.62-11.13-1.75-3.25-4.14-5.81-7.2-7.68-3.05-1.86-6.51-2.8-10.36-2.8-4.8,0-8.85,1.44-12.16,4.33-3.31,2.89-5.29,6.67-5.94,11.35l2.07.22V0h-14.83v82.23Z"/><path class="b" d="m1095.38,55.15c0,2.85-.65,5.41-1.96,7.68-1.31,2.27-3.09,4.06-5.34,5.37-2.25,1.32-4.76,1.97-7.52,1.97s-5.27-.66-7.52-1.97c-2.25-1.32-4.03-3.11-5.34-5.37-1.31-2.27-1.96-4.82-1.96-7.68s.65-5.32,1.96-7.62c1.31-2.3,3.09-4.11,5.34-5.43,2.25-1.32,4.76-1.97,7.52-1.97s5.27.66,7.52,1.97c2.25,1.32,4.03,3.13,5.34,5.43,1.31,2.3,1.96,4.84,1.96,7.62m14.83,0c0-5.26-1.33-10.12-3.98-14.58-2.65-4.46-6.25-7.99-10.8-10.58-4.54-2.59-9.5-3.89-14.88-3.89s-10.34,1.3-14.88,3.89c-4.54,2.6-8.14,6.12-10.79,10.58-2.66,4.46-3.98,9.32-3.98,14.58s1.32,10.13,3.98,14.58c2.65,4.46,6.25,7.99,10.79,10.58,4.54,2.59,9.5,3.89,14.88,3.89s10.34-1.3,14.88-3.89c4.54-2.59,8.14-6.12,10.8-10.58,2.65-4.46,3.98-9.32,3.98-14.58"/><path class="b" d="m1159.66,55.15c0,2.85-.65,5.41-1.96,7.68-1.31,2.27-3.09,4.06-5.34,5.37-2.25,1.32-4.76,1.97-7.52,1.97s-5.27-.66-7.52-1.97c-2.25-1.32-4.03-3.11-5.34-5.37-1.31-2.27-1.96-4.82-1.96-7.68s.65-5.32,1.96-7.62c1.31-2.3,3.09-4.11,5.34-5.43,2.25-1.32,4.76-1.97,7.52-1.97s5.27.66,7.52,1.97c2.25,1.32,4.03,3.13,5.34,5.43,1.31,2.3,1.96,4.84,1.96,7.62m14.83,0c0-5.26-1.33-10.12-3.98-14.58-2.65-4.46-6.25-7.99-10.8-10.58-4.54-2.59-9.5-3.89-14.88-3.89s-10.34,1.3-14.88,3.89c-4.54,2.6-8.14,6.12-10.8,10.58-2.65,4.46-3.98,9.32-3.98,14.58s1.33,10.13,3.98,14.58c2.65,4.46,6.25,7.99,10.8,10.58,4.54,2.59,9.5,3.89,14.88,3.89s10.34-1.3,14.88-3.89c4.54-2.59,8.14-6.12,10.8-10.58,2.65-4.46,3.98-9.32,3.98-14.58"/><rect class="b" x="1182.63" y="0" width="14.83" height="82.23"/><path class="b" d="m963.66,337.19c1.69-.73,3.02-1.79,4.01-3.18s1.48-3.02,1.48-4.91c0-1.43-.35-2.77-1.05-4.03-.7-1.26-1.73-2.38-3.08-3.37-1.36-.99-3.04-1.73-5.06-2.23l-3.08-.82c-1.73-.46-3.03-1.06-3.92-1.79-.88-.73-1.33-1.52-1.33-2.36,0-1.47.53-2.61,1.6-3.43,1.07-.82,2.55-1.23,4.44-1.23,1.77,0,3.27.32,4.5.94,1.23.63,2.12,1.66,2.65,3.08l4.32-1.95c-.49-1.34-1.28-2.51-2.34-3.49-1.07-.99-2.34-1.75-3.82-2.3-1.48-.55-3.13-.82-4.93-.82-3.78,0-6.63.83-8.54,2.49-1.91,1.66-2.87,3.98-2.87,6.95,0,1.93.78,3.66,2.34,5.19,1.56,1.53,3.74,2.67,6.54,3.43l2.96.82c1.89.5,3.32,1.15,4.29,1.95.97.8,1.45,1.85,1.45,3.15,0,1.43-.66,2.53-1.97,3.3-1.32.78-2.94,1.16-4.87,1.16-1.69,0-3.23-.44-4.63-1.32-1.4-.88-2.45-2.04-3.15-3.46l-4.32,1.83c.49,1.34,1.3,2.58,2.44,3.71,1.13,1.13,2.54,2.05,4.23,2.74,1.69.69,3.66,1.04,5.92,1.04s4.11-.37,5.8-1.1m-27.76,0c1.69-.73,3.02-1.79,4.01-3.18.99-1.38,1.48-3.02,1.48-4.91,0-1.43-.35-2.77-1.05-4.03-.7-1.26-1.73-2.38-3.08-3.37-1.36-.99-3.04-1.73-5.06-2.23l-3.08-.82c-1.73-.46-3.03-1.06-3.92-1.79-.89-.73-1.33-1.52-1.33-2.36,0-1.47.53-2.61,1.6-3.43,1.07-.82,2.55-1.23,4.44-1.23,1.77,0,3.27.32,4.5.94,1.23.63,2.12,1.66,2.65,3.08l4.32-1.95c-.49-1.34-1.27-2.51-2.34-3.49-1.07-.99-2.34-1.75-3.82-2.3-1.48-.55-3.13-.82-4.94-.82-3.78,0-6.63.83-8.54,2.49-1.91,1.66-2.87,3.98-2.87,6.95,0,1.93.78,3.66,2.34,5.19,1.56,1.53,3.74,2.67,6.54,3.43l2.96.82c1.89.5,3.32,1.15,4.29,1.95.97.8,1.45,1.85,1.45,3.15,0,1.43-.66,2.53-1.97,3.3-1.32.78-2.94,1.16-4.87,1.16-1.69,0-3.23-.44-4.63-1.32-1.4-.88-2.45-2.04-3.15-3.46l-4.32,1.83c.49,1.34,1.31,2.58,2.44,3.71,1.13,1.13,2.54,2.05,4.23,2.74,1.69.69,3.66,1.04,5.92,1.04s4.11-.37,5.8-1.1m-44.42-22.85c.92-1.45,2.14-2.57,3.64-3.37,1.5-.8,3.09-1.2,4.78-1.2s3.25.4,4.56,1.2c1.32.8,2.36,1.93,3.15,3.4.78,1.47,1.17,3.21,1.17,5.22l1.3-1.07h-21.28l1.3,1.01c0-2.01.46-3.75,1.39-5.19m14.43,22.94c1.75-.67,3.27-1.61,4.56-2.83,1.3-1.22,2.33-2.64,3.12-4.28l-4.26-2.2c-.82,1.72-1.98,3.11-3.49,4.15-1.5,1.05-3.34,1.57-5.52,1.57-2.06,0-3.89-.47-5.49-1.42-1.6-.94-2.85-2.32-3.73-4.12-.89-1.8-1.33-3.97-1.33-6.48l-1.23,1.07h25.48c0-3.53-.58-6.59-1.73-9.19-1.15-2.6-2.78-4.63-4.87-6.07-2.1-1.45-4.59-2.17-7.46-2.17s-5.58.7-7.86,2.11c-2.28,1.41-4.07,3.35-5.37,5.82-1.3,2.48-1.94,5.33-1.94,8.56s.65,6.08,1.94,8.56c1.3,2.48,3.09,4.42,5.4,5.82,2.3,1.41,4.96,2.11,7.96,2.11,2.14,0,4.08-.34,5.83-1.01m-26.39-15.86v-1.51c.04-3.48-.44-6.29-1.45-8.43-1.01-2.14-2.41-3.7-4.19-4.69-1.79-.98-3.9-1.48-6.32-1.48-2.55,0-4.73.63-6.54,1.89-1.81,1.26-3.19,3.08-4.13,5.48-.95,2.39-1.42,5.25-1.42,8.56h2.41c0-3.57.75-6.33,2.25-8.28,1.5-1.95,3.61-2.93,6.32-2.93,1.56,0,2.96.3,4.19.91,1.23.61,2.2,1.73,2.9,3.37.7,1.64,1.05,4.01,1.05,7.11h4.94Zm0,0h-4.93v16.11h4.93v-16.11Zm-21.65,16.11v-25.68l-.31-5.79h-4.63v31.47h4.94Zm-32.82-23.19c.92-1.45,2.14-2.57,3.64-3.37,1.5-.8,3.09-1.2,4.78-1.2s3.25.4,4.56,1.2c1.32.8,2.36,1.93,3.15,3.4.78,1.47,1.17,3.21,1.17,5.22l1.3-1.07h-21.28l1.3,1.01c0-2.01.46-3.75,1.39-5.19m14.43,22.94c1.75-.67,3.27-1.61,4.56-2.83,1.3-1.22,2.33-2.64,3.12-4.28l-4.26-2.2c-.82,1.72-1.98,3.11-3.49,4.15-1.5,1.05-3.34,1.57-5.52,1.57-2.06,0-3.89-.47-5.49-1.42s-2.85-2.32-3.73-4.12c-.89-1.8-1.33-3.97-1.33-6.48l-1.23,1.07h25.48c0-3.53-.58-6.59-1.73-9.19-1.15-2.6-2.78-4.63-4.87-6.07-2.1-1.45-4.59-2.17-7.46-2.17s-5.58.7-7.86,2.11c-2.28,1.41-4.07,3.35-5.37,5.82-1.3,2.48-1.94,5.33-1.94,8.56s.65,6.08,1.94,8.56c1.3,2.48,3.09,4.42,5.4,5.82,2.3,1.41,4.96,2.11,7.96,2.11,2.14,0,4.08-.34,5.83-1.01m-33.65-31.22h-4.93v31.47h4.93v-31.47Zm0,14.16c0-2.39.53-4.28,1.6-5.67,1.07-1.38,2.44-2.38,4.1-2.99,1.67-.61,3.4-.91,5.21-.91v-4.72c-2.22,0-4.33.51-6.32,1.54-2,1.03-3.63,2.6-4.9,4.72-1.27,2.12-1.91,4.88-1.91,8.28l2.22-.25Zm-31.93,11.96c-1.52-1.01-2.71-2.41-3.58-4.22-.86-1.8-1.3-3.86-1.3-6.17s.43-4.36,1.3-6.17c.86-1.8,2.05-3.21,3.55-4.22,1.5-1.01,3.22-1.51,5.15-1.51s3.47.5,4.87,1.51c1.4,1.01,2.5,2.41,3.3,4.22.8,1.81,1.2,3.86,1.2,6.17s-.4,4.36-1.2,6.17c-.8,1.8-1.9,3.21-3.3,4.22-1.4,1.01-3,1.51-4.81,1.51-1.93,0-3.66-.5-5.18-1.51m10.89,4.03c1.95-1.38,3.46-3.32,4.53-5.82,1.07-2.5,1.6-5.36,1.6-8.59s-.53-6.15-1.6-8.62c-1.07-2.47-2.58-4.41-4.53-5.79-1.95-1.38-4.23-2.08-6.82-2.08-2.76,0-5.18.69-7.28,2.08-2.1,1.38-3.73,3.32-4.9,5.79-1.17,2.48-1.76,5.35-1.76,8.62s.59,6.1,1.76,8.59c1.17,2.5,2.81,4.44,4.9,5.82,2.1,1.38,4.52,2.08,7.28,2.08,2.59,0,4.86-.69,6.82-2.08m8.54,1.32v-31.47h-4.94v25.62l.25,5.85h4.69Zm-41.42,0l-10.3-31.47h-4.69l10.3,31.47h4.69Zm-21.1,0l-10.3-31.47h-5l10.49,31.47h4.81Zm.18,0l10.3-31.47h-4.63l-10.42,31.47h4.75Zm21.16,0l10.49-31.47h-5l-10.42,31.47h4.93Zm-60.17-5.35c-1.52-1.01-2.71-2.41-3.58-4.22-.86-1.8-1.3-3.86-1.3-6.17s.43-4.36,1.3-6.17c.86-1.8,2.04-3.21,3.55-4.22,1.5-1.01,3.22-1.51,5.15-1.51s3.47.5,4.87,1.51c1.4,1.01,2.5,2.41,3.3,4.22.8,1.81,1.2,3.86,1.2,6.17s-.4,4.36-1.2,6.17c-.8,1.8-1.9,3.21-3.3,4.22-1.4,1.01-3,1.51-4.81,1.51-1.93,0-3.66-.5-5.18-1.51m10.89,4.03c1.95-1.38,3.46-3.32,4.53-5.82,1.07-2.5,1.6-5.36,1.6-8.59s-.53-6.15-1.6-8.62c-1.07-2.47-2.58-4.41-4.53-5.79-1.95-1.38-4.23-2.08-6.82-2.08-2.76,0-5.18.69-7.28,2.08-2.1,1.38-3.73,3.32-4.9,5.79-1.17,2.48-1.76,5.35-1.76,8.62s.59,6.1,1.76,8.59c1.17,2.5,2.81,4.44,4.9,5.82,2.1,1.38,4.52,2.08,7.28,2.08,2.59,0,4.86-.69,6.82-2.08m8.54,1.32v-31.47h-4.93v25.62l.25,5.85h4.69Z"/><path class="b" d="m1070.45,273.02v-16.3c0-3.57.68-6.33,2.04-8.28,1.36-1.95,3.23-2.93,5.61-2.93,1.4,0,2.64.3,3.73.91,1.09.61,1.95,1.73,2.59,3.37.64,1.64.96,4.01.96,7.11v16.11h4.93v-16.3c0-3.57.68-6.33,2.04-8.28,1.36-1.95,3.25-2.93,5.68-2.93,1.4,0,2.63.3,3.7.91,1.07.61,1.92,1.73,2.56,3.37.64,1.64.96,4.01.96,7.11v16.11h4.93v-18c.04-4.78-.94-8.35-2.93-10.7-2-2.35-4.72-3.53-8.17-3.53-2.3,0-4.29.61-5.95,1.83-1.67,1.22-2.93,2.98-3.79,5.29-.78-2.39-2.05-4.17-3.79-5.35-1.75-1.17-3.86-1.76-6.32-1.76-1.97,0-3.7.44-5.18,1.32-1.48.88-2.69,2.16-3.64,3.84l-.25-4.41h-4.63v31.47h4.93Zm-15.96-.35c1.69-.73,3.02-1.79,4.01-3.18.99-1.38,1.48-3.02,1.48-4.91,0-1.43-.35-2.77-1.05-4.03-.7-1.26-1.73-2.38-3.08-3.37-1.36-.99-3.04-1.73-5.06-2.23l-3.08-.82c-1.73-.46-3.03-1.06-3.92-1.79-.88-.73-1.33-1.52-1.33-2.36,0-1.47.53-2.61,1.6-3.43,1.07-.82,2.55-1.23,4.44-1.23,1.77,0,3.27.32,4.5.94,1.23.63,2.12,1.66,2.65,3.08l4.32-1.95c-.49-1.34-1.27-2.51-2.34-3.49-1.07-.99-2.34-1.75-3.82-2.3-1.48-.55-3.13-.82-4.94-.82-3.78,0-6.63.83-8.54,2.49-1.91,1.66-2.87,3.98-2.87,6.95,0,1.93.78,3.66,2.34,5.19,1.56,1.53,3.74,2.67,6.54,3.43l2.96.82c1.89.5,3.32,1.15,4.29,1.95.97.8,1.45,1.85,1.45,3.15,0,1.43-.66,2.53-1.97,3.3-1.32.78-2.94,1.16-4.87,1.16-1.69,0-3.23-.44-4.63-1.32-1.4-.88-2.45-2.04-3.15-3.46l-4.32,1.83c.49,1.34,1.31,2.58,2.44,3.71,1.13,1.13,2.54,2.05,4.23,2.74,1.69.69,3.66,1.04,5.92,1.04s4.11-.37,5.8-1.1m-23.97-39.37c.6-.63.89-1.36.89-2.2,0-.88-.3-1.63-.89-2.23-.6-.61-1.33-.91-2.19-.91s-1.54.3-2.16.91c-.62.61-.93,1.35-.93,2.23s.31,1.57.93,2.2c.62.63,1.34.94,2.16.94.86,0,1.59-.31,2.19-.94m.22,8.25h-4.93v31.47h4.93v-31.47Zm-32.89,8.28c.93-1.45,2.14-2.57,3.64-3.37,1.5-.8,3.09-1.2,4.78-1.2s3.25.4,4.56,1.2c1.32.8,2.36,1.93,3.15,3.4.78,1.47,1.17,3.21,1.17,5.22l1.3-1.07h-21.28l1.3,1.01c0-2.01.46-3.75,1.39-5.19m14.43,22.94c1.75-.67,3.27-1.61,4.56-2.83,1.3-1.22,2.33-2.64,3.12-4.28l-4.26-2.2c-.82,1.72-1.98,3.11-3.48,4.15-1.5,1.05-3.34,1.57-5.52,1.57-2.06,0-3.89-.47-5.49-1.42-1.6-.94-2.85-2.32-3.73-4.12-.89-1.8-1.33-3.97-1.33-6.48l-1.23,1.07h25.48c0-3.53-.58-6.59-1.73-9.19-1.15-2.6-2.78-4.63-4.87-6.07-2.1-1.45-4.59-2.17-7.46-2.17s-5.58.7-7.86,2.11c-2.28,1.41-4.07,3.35-5.37,5.82-1.3,2.48-1.94,5.33-1.94,8.56s.65,6.08,1.94,8.56c1.3,2.48,3.09,4.42,5.4,5.82,2.3,1.41,4.95,2.11,7.96,2.11,2.14,0,4.08-.34,5.83-1.01m-46.23-5.85c-1.5-1.01-2.68-2.38-3.55-4.12-.86-1.74-1.3-3.77-1.3-6.07s.42-4.21,1.26-5.95c.84-1.74,2.01-3.1,3.52-4.09,1.5-.99,3.22-1.48,5.15-1.48s3.46.49,4.84,1.48c1.38.99,2.47,2.35,3.27,4.09.8,1.74,1.2,3.72,1.2,5.95s-.39,4.33-1.17,6.07c-.78,1.74-1.87,3.12-3.27,4.12-1.4,1.01-3,1.51-4.81,1.51-1.93,0-3.65-.5-5.15-1.51m10.76,3.84c1.93-1.34,3.44-3.21,4.53-5.6,1.09-2.39,1.63-5.16,1.63-8.31s-.55-5.99-1.63-8.4c-1.09-2.41-2.6-4.29-4.53-5.63-1.93-1.34-4.19-2.01-6.79-2.01-2.76,0-5.18.67-7.28,2.01-2.1,1.34-3.73,3.22-4.9,5.63-1.17,2.41-1.76,5.21-1.76,8.4s.59,5.86,1.76,8.28c1.17,2.41,2.81,4.29,4.9,5.63,2.1,1.34,4.52,2.01,7.28,2.01,2.59,0,4.85-.67,6.79-2.01m1.23,13.78c2.3-1.22,4.11-3.04,5.43-5.48,1.32-2.43,1.97-5.46,1.97-9.06v-28.45h-4.94v28.51c0,2.73-.44,4.96-1.33,6.7-.88,1.74-2.12,3.02-3.7,3.84-1.58.82-3.36,1.23-5.34,1.23-1.52,0-2.95-.16-4.29-.47-1.34-.31-2.5-.69-3.49-1.13-.99-.44-1.75-.81-2.28-1.1l-1.85,4.09c.49.34,1.31.74,2.44,1.23,1.13.48,2.51.92,4.13,1.32,1.62.4,3.42.6,5.4.6,2.92,0,5.53-.61,7.83-1.83m-47.38-16.87c-1.52-1.01-2.71-2.41-3.58-4.22-.86-1.8-1.3-3.86-1.3-6.17s.43-4.36,1.3-6.17c.86-1.8,2.05-3.21,3.55-4.22,1.5-1.01,3.22-1.51,5.15-1.51s3.47.5,4.87,1.51c1.4,1.01,2.5,2.41,3.3,4.22.8,1.81,1.2,3.86,1.2,6.17s-.4,4.36-1.2,6.17c-.8,1.81-1.9,3.21-3.3,4.22-1.4,1.01-3,1.51-4.81,1.51-1.93,0-3.66-.5-5.18-1.51m10.89,4.03c1.95-1.38,3.46-3.33,4.53-5.82,1.07-2.5,1.6-5.36,1.6-8.59s-.53-6.15-1.6-8.62c-1.07-2.47-2.58-4.41-4.53-5.79-1.95-1.38-4.22-2.08-6.82-2.08-2.76,0-5.18.69-7.28,2.08-2.1,1.38-3.73,3.32-4.9,5.79-1.17,2.48-1.76,5.35-1.76,8.62s.59,6.1,1.76,8.59c1.17,2.5,2.81,4.44,4.9,5.82,2.1,1.38,4.52,2.08,7.28,2.08,2.59,0,4.86-.69,6.82-2.08m8.54,1.32v-31.47h-4.93v25.62l.25,5.85h4.69Zm-52.43-20.96h-27.94v4.47h27.94v-4.47Zm-11.72-12.08h-4.38v28.58h4.38v-28.58Zm-50.52,33.05l-1.48-3.46-11.47-28.01h-5.24l13.32,31.47h4.87Zm-7.09,12.27c1.19-.71,2.21-1.74,3.05-3.08.84-1.34,1.65-2.94,2.44-4.78l14.8-35.88h-5.3l-11.41,28.07-3.52,8.56c-.49,1.13-1.1,2-1.82,2.61-.72.61-1.64.91-2.74.91-.41,0-.98-.11-1.7-.31-.72-.21-1.55-.53-2.5-.94l-1.85,4.22c1.15.5,2.24.91,3.27,1.23,1.03.32,1.93.47,2.71.47,1.85,0,3.37-.36,4.56-1.07m-14.24-43.75h-19.55v4.47h19.55v-4.47Zm-2.1,31.82c.86-.27,1.83-.76,2.9-1.48l-1.91-4.09c-.78.59-1.41.96-1.88,1.1-.47.15-.96.22-1.45.22-1.52,0-2.71-.43-3.55-1.29-.84-.86-1.26-2.09-1.26-3.68v-32.42h-4.94v32.92c0,2.9.82,5.14,2.47,6.73,1.64,1.6,3.97,2.39,6.97,2.39.9,0,1.79-.14,2.65-.41m-22-40.06c.6-.63.89-1.36.89-2.2,0-.88-.3-1.63-.89-2.23-.6-.61-1.33-.91-2.19-.91s-1.54.3-2.16.91c-.62.61-.92,1.35-.92,2.23s.31,1.57.92,2.2c.62.63,1.34.94,2.16.94s1.59-.31,2.19-.94m.22,8.25h-4.93v31.47h4.93v-31.47Zm-39.1,16.11v1.51c0,3.44.49,6.24,1.48,8.4.99,2.16,2.38,3.74,4.19,4.72,1.81.98,3.91,1.48,6.29,1.48,2.59,0,4.78-.63,6.57-1.89,1.79-1.26,3.16-3.08,4.1-5.48.95-2.39,1.42-5.24,1.42-8.56h-2.41c0,3.53-.75,6.27-2.25,8.25-1.5,1.97-3.59,2.96-6.26,2.96-1.56,0-2.97-.3-4.23-.91-1.25-.61-2.23-1.73-2.93-3.37-.7-1.64-1.05-4.01-1.05-7.11h-4.94Zm4.94-16.11h-4.93v16.11h4.93v-16.11Zm21.65,31.47v-31.47h-4.94v25.68l.31,5.79h4.63Zm-52.75-5.35c-1.52-1.01-2.71-2.41-3.58-4.22-.86-1.8-1.3-3.86-1.3-6.17s.43-4.36,1.3-6.17c.86-1.8,2.05-3.21,3.55-4.22,1.5-1.01,3.22-1.51,5.15-1.51s3.47.5,4.87,1.51c1.4,1.01,2.5,2.41,3.3,4.22.8,1.81,1.2,3.86,1.2,6.17s-.4,4.36-1.2,6.17c-.8,1.81-1.9,3.21-3.3,4.22-1.4,1.01-3,1.51-4.81,1.51-1.93,0-3.66-.5-5.18-1.51m10.89,4.03c1.95-1.38,3.46-3.33,4.53-5.82,1.07-2.5,1.6-5.36,1.6-8.59s-.53-6.15-1.6-8.62c-1.07-2.47-2.58-4.41-4.53-5.79-1.95-1.38-4.23-2.08-6.82-2.08-2.75,0-5.18.69-7.28,2.08-2.1,1.38-3.73,3.32-4.9,5.79-1.17,2.48-1.76,5.35-1.76,8.62s.59,6.1,1.76,8.59c1.17,2.5,2.81,4.44,4.9,5.82,2.1,1.38,4.52,2.08,7.28,2.08,2.59,0,4.86-.69,6.82-2.08m8.54,13.91v-44.06h-4.69l-.25,5.85v38.21h4.94Zm-55.57-35.78c.93-1.45,2.14-2.57,3.64-3.37,1.5-.8,3.09-1.2,4.78-1.2s3.25.4,4.56,1.2c1.32.8,2.36,1.93,3.15,3.4.78,1.47,1.17,3.21,1.17,5.22l1.3-1.07h-21.28l1.3,1.01c0-2.01.46-3.75,1.39-5.19m14.43,22.94c1.75-.67,3.27-1.61,4.56-2.83,1.3-1.22,2.33-2.64,3.12-4.28l-4.26-2.2c-.82,1.72-1.98,3.11-3.48,4.15-1.5,1.05-3.34,1.57-5.52,1.57-2.06,0-3.89-.47-5.49-1.42-1.6-.94-2.85-2.32-3.73-4.12-.89-1.8-1.33-3.97-1.33-6.48l-1.23,1.07h25.48c0-3.53-.58-6.59-1.73-9.19-1.15-2.6-2.78-4.63-4.87-6.07-2.1-1.45-4.59-2.17-7.46-2.17s-5.58.7-7.86,2.11c-2.28,1.41-4.07,3.35-5.37,5.82-1.3,2.48-1.94,5.33-1.94,8.56s.65,6.08,1.94,8.56c1.3,2.48,3.09,4.42,5.4,5.82,2.3,1.41,4.95,2.11,7.96,2.11,2.14,0,4.08-.34,5.83-1.01"/><path class="b" d="m1026.03,185.31c.93-1.45,2.14-2.57,3.64-3.37,1.5-.8,3.09-1.2,4.78-1.2s3.25.4,4.56,1.2c1.32.8,2.36,1.93,3.15,3.4.78,1.47,1.17,3.21,1.17,5.22l1.3-1.07h-21.28l1.3,1.01c0-2.01.46-3.75,1.39-5.19m14.43,22.94c1.75-.67,3.27-1.61,4.56-2.83,1.3-1.22,2.33-2.64,3.12-4.28l-4.26-2.2c-.82,1.72-1.98,3.11-3.48,4.15-1.5,1.05-3.34,1.57-5.52,1.57-2.06,0-3.89-.47-5.49-1.42-1.6-.94-2.85-2.32-3.73-4.12-.89-1.8-1.33-3.97-1.33-6.48l-1.23,1.07h25.48c0-3.53-.58-6.59-1.73-9.19-1.15-2.6-2.78-4.63-4.87-6.07-2.1-1.45-4.59-2.17-7.46-2.17s-5.58.7-7.86,2.11c-2.28,1.41-4.07,3.35-5.37,5.82-1.3,2.48-1.94,5.33-1.94,8.56s.65,6.08,1.94,8.56c1.3,2.48,3.09,4.42,5.4,5.82,2.3,1.41,4.95,2.11,7.96,2.11,2.14,0,4.08-.34,5.83-1.01m-46.23-5.85c-1.5-1.01-2.68-2.38-3.55-4.12-.86-1.74-1.3-3.77-1.3-6.07s.42-4.21,1.26-5.95c.84-1.74,2.01-3.1,3.52-4.09,1.5-.99,3.22-1.48,5.15-1.48s3.46.49,4.84,1.48c1.38.99,2.47,2.35,3.27,4.09.8,1.74,1.2,3.72,1.2,5.95s-.39,4.33-1.17,6.07c-.78,1.74-1.87,3.12-3.27,4.12-1.4,1.01-3,1.51-4.81,1.51-1.93,0-3.65-.5-5.15-1.51m10.76,3.84c1.93-1.34,3.44-3.21,4.53-5.6,1.09-2.39,1.64-5.16,1.64-8.31s-.55-5.99-1.64-8.4c-1.09-2.41-2.6-4.29-4.53-5.63-1.93-1.34-4.19-2.01-6.78-2.01-2.76,0-5.18.67-7.28,2.01-2.1,1.34-3.73,3.22-4.9,5.63-1.17,2.41-1.76,5.21-1.76,8.4s.59,5.86,1.76,8.28c1.17,2.41,2.81,4.29,4.9,5.63,2.1,1.34,4.52,2.01,7.28,2.01,2.59,0,4.85-.67,6.78-2.01m1.23,13.78c2.3-1.22,4.11-3.04,5.43-5.48,1.32-2.43,1.97-5.46,1.97-9.06v-28.45h-4.93v28.51c0,2.73-.44,4.96-1.33,6.7-.89,1.74-2.12,3.02-3.7,3.84-1.58.82-3.36,1.23-5.34,1.23-1.52,0-2.95-.16-4.29-.47-1.34-.31-2.5-.69-3.49-1.13-.99-.44-1.75-.81-2.28-1.1l-1.85,4.09c.49.34,1.31.74,2.44,1.23,1.13.48,2.51.92,4.13,1.32,1.62.4,3.42.6,5.4.6,2.92,0,5.53-.61,7.83-1.83m-47.38-16.87c-1.52-1.01-2.71-2.41-3.58-4.22-.86-1.8-1.3-3.86-1.3-6.17s.43-4.36,1.3-6.17c.86-1.8,2.05-3.21,3.55-4.22,1.5-1.01,3.22-1.51,5.15-1.51s3.47.5,4.87,1.51c1.4,1.01,2.5,2.41,3.3,4.22.8,1.81,1.2,3.86,1.2,6.17s-.4,4.36-1.2,6.17c-.8,1.8-1.9,3.21-3.3,4.22-1.4,1.01-3,1.51-4.81,1.51-1.93,0-3.66-.5-5.18-1.51m10.89,4.03c1.95-1.38,3.46-3.32,4.53-5.82,1.07-2.5,1.6-5.36,1.6-8.59s-.53-6.15-1.6-8.62c-1.07-2.47-2.58-4.41-4.53-5.79-1.95-1.38-4.22-2.08-6.82-2.08-2.76,0-5.18.69-7.28,2.08-2.1,1.38-3.73,3.32-4.9,5.79-1.17,2.48-1.76,5.35-1.76,8.62s.59,6.1,1.76,8.59c1.17,2.5,2.81,4.44,4.9,5.82,2.1,1.38,4.52,2.08,7.28,2.08,2.59,0,4.86-.69,6.82-2.08m8.54,1.32v-31.47h-4.94v25.62l.25,5.85h4.69Zm-58.78-31.47h-4.93v31.47h4.93v-31.47Zm0,14.16c0-2.39.53-4.28,1.6-5.67,1.07-1.38,2.44-2.38,4.1-2.99,1.67-.61,3.4-.91,5.21-.91v-4.72c-2.22,0-4.33.51-6.32,1.54-2,1.03-3.63,2.6-4.9,4.72-1.27,2.12-1.91,4.88-1.91,8.28l2.22-.25Zm-31.36,11.9c-1.58-1.01-2.82-2.4-3.7-4.19-.89-1.78-1.33-3.83-1.33-6.14s.44-4.41,1.33-6.17c.88-1.76,2.1-3.15,3.64-4.15,1.54-1.01,3.32-1.51,5.34-1.51s3.86.5,5.43,1.51c1.56,1.01,2.79,2.4,3.67,4.19.88,1.78,1.33,3.83,1.33,6.14s-.44,4.35-1.33,6.14c-.89,1.78-2.1,3.18-3.64,4.19-1.54,1.01-3.32,1.51-5.34,1.51s-3.81-.5-5.4-1.51m13.36,4.06c2.3-1.41,4.1-3.35,5.4-5.82,1.3-2.48,1.94-5.33,1.94-8.56s-.65-6.08-1.94-8.56c-1.3-2.47-3.11-4.42-5.43-5.82-2.32-1.41-4.99-2.11-7.99-2.11s-5.67.7-7.99,2.11c-2.32,1.41-4.13,3.35-5.43,5.82-1.3,2.48-1.94,5.33-1.94,8.56s.66,6.08,1.97,8.56c1.32,2.48,3.14,4.42,5.46,5.82,2.32,1.41,5.01,2.11,8.05,2.11s5.59-.7,7.9-2.11m-25.11-30.12h-19.55v4.34h19.55v-4.34Zm-8.94,31.47v-34.68c0-1.97.36-3.43,1.08-4.37.72-.94,1.8-1.42,3.24-1.42.45,0,1.01.11,1.67.32.66.21,1.46.5,2.41.88l1.85-3.97c-1.15-.54-2.24-.96-3.27-1.26-1.03-.29-1.95-.44-2.78-.44-3.08,0-5.38.83-6.88,2.49-1.5,1.66-2.25,4.12-2.25,7.4v35.06h4.94Zm-50.09-5.35c-1.4-1.01-2.5-2.41-3.3-4.22-.8-1.8-1.2-3.86-1.2-6.17s.4-4.42,1.2-6.2c.8-1.78,1.91-3.18,3.33-4.19,1.42-1.01,3.03-1.51,4.84-1.51,1.97,0,3.71.5,5.21,1.51,1.5,1.01,2.67,2.41,3.52,4.22.84,1.81,1.26,3.86,1.26,6.17s-.44,4.42-1.33,6.2c-.89,1.78-2.08,3.18-3.58,4.19-1.5,1.01-3.22,1.51-5.15,1.51-1.81,0-3.41-.5-4.81-1.51m13.2,4.03c2.1-1.38,3.73-3.32,4.9-5.82,1.17-2.5,1.76-5.36,1.76-8.59s-.59-6.15-1.76-8.62c-1.17-2.47-2.81-4.41-4.9-5.79-2.1-1.38-4.52-2.08-7.28-2.08-2.59,0-4.86.69-6.82,2.08-1.95,1.38-3.46,3.32-4.53,5.79-1.07,2.48-1.6,5.35-1.6,8.62s.53,6.1,1.6,8.59c1.07,2.5,2.58,4.44,4.53,5.82,1.95,1.38,4.23,2.08,6.82,2.08,2.75,0,5.18-.69,7.28-2.08m-17.95,1.32l.25-5.85v-38.21h-4.94v44.06h4.69Zm-38.68-15.36v1.51c0,3.44.49,6.24,1.48,8.4.99,2.16,2.38,3.74,4.19,4.72,1.81.98,3.91,1.48,6.29,1.48,2.59,0,4.78-.63,6.57-1.89,1.79-1.26,3.16-3.08,4.1-5.48.95-2.39,1.42-5.24,1.42-8.56h-2.41c0,3.53-.75,6.27-2.25,8.25-1.5,1.97-3.59,2.96-6.26,2.96-1.56,0-2.97-.3-4.23-.91-1.25-.61-2.23-1.73-2.93-3.37-.7-1.64-1.05-4.01-1.05-7.11h-4.94Zm4.94-16.11h-4.93v16.11h4.93v-16.11Zm21.65,31.47v-31.47h-4.94v25.68l.31,5.79h4.63Zm-32.83-16.11v-1.51c.04-3.48-.44-6.29-1.45-8.43-1.01-2.14-2.42-3.7-4.23-4.69-1.81-.98-3.91-1.48-6.29-1.48-2.55,0-4.73.63-6.54,1.89-1.81,1.26-3.2,3.08-4.16,5.48-.97,2.39-1.45,5.25-1.45,8.56h2.41c0-3.57.75-6.33,2.25-8.28,1.5-1.95,3.61-2.93,6.32-2.93,1.56,0,2.96.3,4.2.91,1.23.61,2.21,1.73,2.93,3.37.72,1.64,1.08,4.01,1.08,7.11h4.94Zm0,0h-4.93v16.11h4.93v-16.11Zm-21.71-27.95h-4.93v44.06h4.93v-44.06Zm-33.49,26.75h-24v4.78h24v-4.78Zm-26.77,17.31l17.33-44.06h-5.3l-17.58,44.06h5.55Zm35.04,0l-17.58-44.06h-5.24l17.33,44.06h5.49Z"/></svg>