<?xml version="1.0" encoding="utf-8"?>
<!-- Generator: Adobe Illustrator 27.9.0, SVG Export Plug-In . SVG Version: 6.00 Build 0)  -->
<svg version="1.1" id="a" xmlns="http://www.w3.org/2000/svg" xmlns:xlink="http://www.w3.org/1999/xlink" x="0px" y="0px"
	 viewBox="0 0 1238.4 352.8" style="enable-background:new 0 0 1238.4 352.8;" xml:space="preserve">
<style type="text/css">
	.st0{fill:#FFFFFF;}
</style>
<path class="st0" d="M598.4,84.5V0c-93.3,0-168.9,75.6-168.9,168.9c0,46.6-37.8,84.5-84.5,84.5v84.5c93.3,0,168.9-75.6,168.9-168.9
	C513.9,122.3,551.7,84.5,598.4,84.5"/>
<path class="st0" d="M253.4,253.4H84.5V84.5h168.9V253.4z M337.8,168.9C337.8,75.6,262.2,0,168.9,0S0,75.6,0,168.9
	s75.6,168.9,168.9,168.9S337.8,262.2,337.8,168.9"/>
<path class="st0" d="M696.1,44c0,4.8,1.1,9.1,3.3,13c2.2,4,5.2,7,9.1,9.3c3.8,2.2,8.1,3.3,12.9,3.3s9-1.1,12.9-3.3
	c3.8-2.2,6.9-5.3,9.1-9.3c2.2-4,3.3-8.3,3.3-13s-1.1-9.1-3.3-13c-2.2-4-5.2-7-9.1-9.3s-8.1-3.3-12.9-3.3s-9,1.1-12.9,3.3
	c-3.8,2.2-6.9,5.3-9.1,9.3C697.3,34.9,696.1,39.2,696.1,44 M680.7,44c0-7.4,1.8-14.1,5.5-20.3c3.6-6.1,8.6-11,14.8-14.6
	s13.1-5.4,20.5-5.4s14.2,1.8,20.5,5.4s11.2,8.4,14.8,14.6c3.6,6.1,5.5,12.9,5.5,20.3s-1.8,14.1-5.5,20.3s-8.6,11-14.8,14.6
	s-13.1,5.4-20.5,5.4s-14.2-1.8-20.5-5.4s-11.2-8.4-14.8-14.6C682.5,58.1,680.7,51.3,680.7,44"/>
<rect x="769.8" y="0.1" class="st0" width="14.8" height="82.2"/>
<polygon class="st0" points="836.2,0.1 836.2,37.5 837.2,41.5 837.2,82.3 851,82.3 851,0.1 "/>
<path class="st0" d="M837.2,55.3c0,2.8-0.6,5.3-1.9,7.6c-1.3,2.3-3,4.1-5.2,5.4c-2.2,1.3-4.7,1.9-7.4,1.9s-5.1-0.6-7.4-1.9
	s-4-3.1-5.2-5.4c-1.3-2.3-1.9-4.8-1.9-7.6s0.6-5.3,1.9-7.6c1.3-2.3,3-4.1,5.2-5.4c2.2-1.3,4.7-2,7.4-2s5.1,0.7,7.4,2
	c2.2,1.3,4,3.1,5.2,5.4C836.5,50,837.2,52.5,837.2,55.3 M843.3,55.4c0-5.2-1-10-2.9-14.3s-4.7-7.8-8.3-10.4
	c-3.6-2.6-7.8-3.9-12.6-3.9S810,28,806,30.5c-4,2.5-7.1,6-9.3,10.3s-3.4,9.2-3.4,14.4s1.1,10.1,3.4,14.4s5.4,7.8,9.3,10.3
	c4,2.5,8.5,3.8,13.5,3.8s9-1.3,12.6-3.9c3.6-2.6,6.4-6.1,8.3-10.4S843.3,60.4,843.3,55.4"/>
<path class="st0" d="M902.7,59.8h-15.3c0,4.5,1.1,8.6,3.4,12.3c2.2,3.7,5.3,6.6,9.2,8.7S908,84,912.7,84s8.9-1.1,12.9-3.2
	s7-5,9.3-8.7c2.2-3.7,3.4-7.8,3.4-12.3s-1.1-8.6-3.4-12.3c-2.2-3.7-5.3-6.6-9.2-8.7c-3.8-2.1-8.1-3.2-12.8-3.2h-0.1
	c-2.5,0-4.6-0.8-6.4-2.5c-1.8-1.6-2.7-3.7-2.7-6.2s0.8-4.6,2.6-6.2c1.7-1.6,3.9-2.5,6.5-2.5s4.8,0.8,6.5,2.5
	c1.7,1.6,2.6,3.7,2.6,6.2h15.3c0-4.4-1.1-8.3-3.3-11.8c-2.2-3.5-5.2-6.3-8.9-8.3s-7.8-3-12.2-3s-8.4,1-12.1,3
	c-3.7,2-6.7,4.8-8.8,8.3s-3.3,7.5-3.3,11.8s1.1,8.2,3.3,11.8s5.1,6.3,8.8,8.3c3.7,2,7.8,3,12.3,3h0.1c2.8,0,5.2,0.9,7.1,2.7
	s2.8,4.2,2.8,7s-1,5.2-2.9,7s-4.4,2.7-7.3,2.7s-5.3-0.9-7.2-2.8C903.6,64.9,902.7,62.5,902.7,59.8"/>
<path class="st0" d="M983.7,27.9c-3.2-1.1-6.5-1.8-10.1-1.8c-5.4,0-10.3,1.3-14.9,3.9c-4.5,2.6-8.1,6.1-10.8,10.6
	c-2.7,4.5-4,9.3-4,14.6s1.3,10.1,4,14.6c2.7,4.5,6.2,8,10.8,10.6c4.5,2.6,9.5,3.9,14.9,3.9c3.6,0,6.9-0.6,10.1-1.8V66.2
	c-0.8,0.7-1.6,1.4-2.6,1.9c-2.2,1.3-4.8,2-7.5,2s-5.3-0.7-7.5-2c-2.2-1.3-4-3.1-5.3-5.4s-2-4.8-2-7.7s0.7-5.3,2-7.6s3.1-4.1,5.3-5.4
	s4.8-2,7.5-2s5.3,0.7,7.5,2c1,0.6,1.8,1.2,2.6,2V27.9L983.7,27.9z"/>
<path class="st0" d="M992.4,82.2h14.8V51.9c0-3.4,1-6.1,3-8.1c2-2,4.6-3.1,7.7-3.1s5.7,1,7.7,3c2,2,3,4.7,3,8.2v30.4h14.8V48.5
	c0-4.2-0.9-7.9-2.6-11.1s-4.1-5.8-7.2-7.7c-3.1-1.9-6.5-2.8-10.4-2.8c-4.8,0-8.8,1.4-12.2,4.3s-5.3,6.7-5.9,11.4l2.1,0.2V0h-14.8
	V82.2z"/>
<path class="st0" d="M1095.4,55.2c0,2.8-0.7,5.4-2,7.7c-1.3,2.3-3.1,4.1-5.3,5.4c-2.2,1.3-4.8,2-7.5,2s-5.3-0.7-7.5-2
	c-2.2-1.3-4-3.1-5.3-5.4c-1.3-2.3-2-4.8-2-7.7s0.7-5.3,2-7.6c1.3-2.3,3.1-4.1,5.3-5.4s4.8-2,7.5-2s5.3,0.7,7.5,2
	c2.2,1.3,4,3.1,5.3,5.4C1094.7,49.8,1095.4,52.4,1095.4,55.2 M1110.2,55.2c0-5.3-1.3-10.1-4-14.6s-6.2-8-10.8-10.6
	c-4.5-2.6-9.5-3.9-14.9-3.9s-10.3,1.3-14.9,3.9c-4.5,2.6-8.1,6.1-10.8,10.6c-2.7,4.5-4,9.3-4,14.6s1.3,10.1,4,14.6
	c2.7,4.5,6.2,8,10.8,10.6c4.5,2.6,9.5,3.9,14.9,3.9s10.3-1.3,14.9-3.9s8.1-6.1,10.8-10.6C1108.9,65.3,1110.2,60.4,1110.2,55.2"/>
<path class="st0" d="M1159.7,55.2c0,2.8-0.7,5.4-2,7.7c-1.3,2.3-3.1,4.1-5.3,5.4c-2.2,1.3-4.8,2-7.5,2s-5.3-0.7-7.5-2
	c-2.2-1.3-4-3.1-5.3-5.4c-1.3-2.3-2-4.8-2-7.7s0.7-5.3,2-7.6c1.3-2.3,3.1-4.1,5.3-5.4s4.8-2,7.5-2s5.3,0.7,7.5,2
	c2.2,1.3,4,3.1,5.3,5.4C1159,49.8,1159.7,52.4,1159.7,55.2 M1174.5,55.2c0-5.3-1.3-10.1-4-14.6s-6.2-8-10.8-10.6
	c-4.5-2.6-9.5-3.9-14.9-3.9s-10.3,1.3-14.9,3.9c-4.5,2.6-8.1,6.1-10.8,10.6c-2.7,4.5-4,9.3-4,14.6s1.3,10.1,4,14.6
	c2.7,4.5,6.2,8,10.8,10.6c4.5,2.6,9.5,3.9,14.9,3.9s10.3-1.3,14.9-3.9s8.1-6.1,10.8-10.6C1173.2,65.3,1174.5,60.4,1174.5,55.2"/>
<rect x="1182.6" class="st0" width="14.8" height="82.2"/>
<g>
	<path class="st0" d="M1224.7,337.6c1.7-0.7,3-1.8,4-3.2s1.5-3,1.5-4.9c0-1.4-0.3-2.8-1-4s-1.7-2.4-3.1-3.4c-1.4-1-3-1.7-5.1-2.2
		l-3.1-0.8c-1.7-0.5-3-1.1-3.9-1.8c-0.9-0.7-1.3-1.5-1.3-2.4c0-1.5,0.5-2.6,1.6-3.4c1.1-0.8,2.5-1.2,4.4-1.2c1.8,0,3.3,0.3,4.5,0.9
		c1.2,0.6,2.1,1.7,2.7,3.1l4.3-2c-0.5-1.3-1.3-2.5-2.3-3.5c-1.1-1-2.3-1.8-3.8-2.3s-3.1-0.8-4.9-0.8c-3.8,0-6.6,0.8-8.5,2.5
		c-1.9,1.7-2.9,4-2.9,7c0,1.9,0.8,3.7,2.3,5.2s3.7,2.7,6.5,3.4l3,0.8c1.9,0.5,3.3,1.1,4.3,2c1,0.8,1.4,1.9,1.4,3.1
		c0,1.4-0.7,2.5-2,3.3c-1.3,0.8-2.9,1.2-4.9,1.2c-1.7,0-3.2-0.4-4.6-1.3s-2.4-2-3.2-3.5l-4.3,1.8c0.5,1.3,1.3,2.6,2.4,3.7
		c1.1,1.1,2.5,2,4.2,2.7s3.7,1,5.9,1S1223,338.3,1224.7,337.6 M1196.9,337.6c1.7-0.7,3-1.8,4-3.2c1-1.4,1.5-3,1.5-4.9
		c0-1.4-0.3-2.8-1.1-4c-0.7-1.3-1.7-2.4-3.1-3.4c-1.4-1-3-1.7-5.1-2.2l-3.1-0.8c-1.7-0.5-3-1.1-3.9-1.8c-0.9-0.7-1.3-1.5-1.3-2.4
		c0-1.5,0.5-2.6,1.6-3.4s2.5-1.2,4.4-1.2c1.8,0,3.3,0.3,4.5,0.9c1.2,0.6,2.1,1.7,2.6,3.1l4.3-2c-0.5-1.3-1.3-2.5-2.3-3.5
		c-1.1-1-2.3-1.8-3.8-2.3s-3.1-0.8-4.9-0.8c-3.8,0-6.6,0.8-8.5,2.5s-2.9,4-2.9,7c0,1.9,0.8,3.7,2.3,5.2c1.6,1.5,3.7,2.7,6.5,3.4
		l3,0.8c1.9,0.5,3.3,1.1,4.3,2c1,0.8,1.5,1.9,1.5,3.1c0,1.4-0.7,2.5-2,3.3c-1.3,0.8-2.9,1.2-4.9,1.2c-1.7,0-3.2-0.4-4.6-1.3
		c-1.4-0.9-2.5-2-3.2-3.5l-4.3,1.8c0.5,1.3,1.3,2.6,2.4,3.7c1.1,1.1,2.5,2,4.2,2.7c1.7,0.7,3.7,1,5.9,1S1195.2,338.3,1196.9,337.6
		 M1152.5,314.7c0.9-1.5,2.1-2.6,3.6-3.4s3.1-1.2,4.8-1.2s3.2,0.4,4.6,1.2c1.3,0.8,2.4,1.9,3.1,3.4c0.8,1.5,1.2,3.2,1.2,5.2l1.3-1.1
		h-21.3l1.3,1C1151.1,317.9,1151.6,316.2,1152.5,314.7 M1166.9,337.7c1.8-0.7,3.3-1.6,4.6-2.8c1.3-1.2,2.3-2.6,3.1-4.3l-4.3-2.2
		c-0.8,1.7-2,3.1-3.5,4.1c-1.5,1-3.3,1.6-5.5,1.6c-2.1,0-3.9-0.5-5.5-1.4c-1.6-0.9-2.8-2.3-3.7-4.1c-0.9-1.8-1.3-4-1.3-6.5l-1.2,1.1
		h25.5c0-3.5-0.6-6.6-1.7-9.2c-1.1-2.6-2.8-4.6-4.9-6.1c-2.1-1.5-4.6-2.2-7.5-2.2s-5.6,0.7-7.9,2.1c-2.3,1.4-4.1,3.4-5.4,5.8
		c-1.3,2.5-1.9,5.3-1.9,8.6s0.7,6.1,1.9,8.6c1.3,2.5,3.1,4.4,5.4,5.8c2.3,1.4,5,2.1,8,2.1C1163.2,338.7,1165.2,338.3,1166.9,337.7
		 M1140.5,321.8v-1.5c0-3.5-0.4-6.3-1.5-8.4c-1-2.1-2.4-3.7-4.2-4.7c-1.8-1-3.9-1.5-6.3-1.5c-2.5,0-4.7,0.6-6.5,1.9
		s-3.2,3.1-4.1,5.5c-0.9,2.4-1.4,5.2-1.4,8.6h2.4c0-3.6,0.8-6.3,2.2-8.3s3.6-2.9,6.3-2.9c1.6,0,3,0.3,4.2,0.9
		c1.2,0.6,2.2,1.7,2.9,3.4c0.7,1.6,1,4,1,7.1H1140.5L1140.5,321.8z M1140.5,321.8h-4.9v16.1h4.9V321.8L1140.5,321.8z M1118.9,337.9
		v-25.7l-0.3-5.8h-4.6v31.5H1118.9z M1086.1,314.7c0.9-1.5,2.1-2.6,3.6-3.4s3.1-1.2,4.8-1.2c1.7,0,3.2,0.4,4.6,1.2
		c1.3,0.8,2.4,1.9,3.2,3.4c0.8,1.5,1.2,3.2,1.2,5.2l1.3-1.1h-21.3l1.3,1C1084.7,317.9,1085.2,316.2,1086.1,314.7 M1100.5,337.7
		c1.8-0.7,3.3-1.6,4.6-2.8c1.3-1.2,2.3-2.6,3.1-4.3l-4.3-2.2c-0.8,1.7-2,3.1-3.5,4.1c-1.5,1-3.3,1.6-5.5,1.6c-2.1,0-3.9-0.5-5.5-1.4
		c-1.6-1-2.9-2.3-3.7-4.1c-0.9-1.8-1.3-4-1.3-6.5l-1.2,1.1h25.5c0-3.5-0.6-6.6-1.7-9.2c-1.2-2.6-2.8-4.6-4.9-6.1
		c-2.1-1.5-4.6-2.2-7.5-2.2c-2.9,0-5.6,0.7-7.9,2.1c-2.3,1.4-4.1,3.4-5.4,5.8c-1.3,2.5-1.9,5.3-1.9,8.6s0.7,6.1,1.9,8.6
		c1.3,2.5,3.1,4.4,5.4,5.8c2.3,1.4,5,2.1,8,2.1C1096.8,338.7,1098.8,338.3,1100.5,337.7 M1066.9,306.4h-4.9v31.5h4.9V306.4z
		 M1066.9,320.6c0-2.4,0.5-4.3,1.6-5.7c1.1-1.4,2.4-2.4,4.1-3c1.7-0.6,3.4-0.9,5.2-0.9v-4.7c-2.2,0-4.3,0.5-6.3,1.5
		c-2,1-3.6,2.6-4.9,4.7s-1.9,4.9-1.9,8.3L1066.9,320.6L1066.9,320.6z M1034.9,332.6c-1.5-1-2.7-2.4-3.6-4.2
		c-0.9-1.8-1.3-3.9-1.3-6.2s0.4-4.4,1.3-6.2c0.9-1.8,2.1-3.2,3.6-4.2s3.2-1.5,5.2-1.5s3.5,0.5,4.9,1.5s2.5,2.4,3.3,4.2
		c0.8,1.8,1.2,3.9,1.2,6.2s-0.4,4.4-1.2,6.2c-0.8,1.8-1.9,3.2-3.3,4.2c-1.4,1-3,1.5-4.8,1.5C1038.2,334.1,1036.5,333.6,1034.9,332.6
		 M1045.8,336.6c2-1.4,3.5-3.3,4.5-5.8s1.6-5.4,1.6-8.6s-0.5-6.1-1.6-8.6s-2.6-4.4-4.5-5.8s-4.2-2.1-6.8-2.1c-2.8,0-5.2,0.7-7.3,2.1
		c-2.1,1.4-3.7,3.3-4.9,5.8c-1.2,2.5-1.8,5.4-1.8,8.6s0.6,6.1,1.8,8.6c1.2,2.5,2.8,4.4,4.9,5.8c2.1,1.4,4.5,2.1,7.3,2.1
		C1041.6,338.7,1043.9,338,1045.8,336.6 M1054.4,337.9v-31.5h-4.9v25.6l0.2,5.9H1054.4z M1013,337.9l-10.3-31.5H998l10.3,31.5H1013z
		 M991.9,337.9l-10.3-31.5h-5l10.5,31.5H991.9z M992,337.9l10.3-31.5h-4.6l-10.4,31.5H992z M1013.2,337.9l10.5-31.5h-5l-10.4,31.5
		H1013.2z M953,332.6c-1.5-1-2.7-2.4-3.6-4.2c-0.9-1.8-1.3-3.9-1.3-6.2s0.4-4.4,1.3-6.2c0.9-1.8,2-3.2,3.5-4.2
		c1.5-1,3.2-1.5,5.2-1.5s3.5,0.5,4.9,1.5s2.5,2.4,3.3,4.2s1.2,3.9,1.2,6.2s-0.4,4.4-1.2,6.2c-0.8,1.8-1.9,3.2-3.3,4.2
		c-1.4,1-3,1.5-4.8,1.5C956.3,334.1,954.5,333.6,953,332.6 M963.9,336.6c2-1.4,3.5-3.3,4.5-5.8s1.6-5.4,1.6-8.6s-0.5-6.1-1.6-8.6
		c-1.1-2.5-2.6-4.4-4.5-5.8s-4.2-2.1-6.8-2.1c-2.8,0-5.2,0.7-7.3,2.1c-2.1,1.4-3.7,3.3-4.9,5.8c-1.2,2.5-1.8,5.4-1.8,8.6
		s0.6,6.1,1.8,8.6c1.2,2.5,2.8,4.4,4.9,5.8c2.1,1.4,4.5,2.1,7.3,2.1C959.7,338.7,962,338,963.9,336.6 M972.5,337.9v-31.5h-4.9v25.6
		l0.2,5.9H972.5L972.5,337.9z"/>
</g>
<path class="st0" d="M881.4,338v-16.3c0-3.6,0.7-6.3,2-8.3s3.2-2.9,5.6-2.9c1.4,0,2.6,0.3,3.7,0.9s1.9,1.7,2.6,3.4s1,4,1,7.1V338
	h4.9v-16.3c0-3.6,0.7-6.3,2-8.3s3.2-2.9,5.7-2.9c1.4,0,2.6,0.3,3.7,0.9s1.9,1.7,2.6,3.4s1,4,1,7.1V338h4.9v-18
	c0-4.8-0.9-8.4-2.9-10.7c-2-2.3-4.7-3.5-8.2-3.5c-2.3,0-4.3,0.6-5.9,1.8c-1.7,1.2-2.9,3-3.8,5.3c-0.8-2.4-2.1-4.2-3.8-5.4
	c-1.8-1.2-3.9-1.8-6.3-1.8c-2,0-3.7,0.4-5.2,1.3c-1.5,0.9-2.7,2.2-3.6,3.8l-0.2-4.4h-4.6V338L881.4,338L881.4,338z M865.5,337.7
	c1.7-0.7,3-1.8,4-3.2c1-1.4,1.5-3,1.5-4.9c0-1.4-0.3-2.8-1.1-4c-0.7-1.3-1.7-2.4-3.1-3.4c-1.4-1-3-1.7-5.1-2.2l-3.1-0.8
	c-1.7-0.5-3-1.1-3.9-1.8c-0.9-0.7-1.3-1.5-1.3-2.4c0-1.5,0.5-2.6,1.6-3.4s2.6-1.2,4.4-1.2c1.8,0,3.3,0.3,4.5,0.9
	c1.2,0.6,2.1,1.7,2.7,3.1l4.3-2c-0.5-1.3-1.3-2.5-2.3-3.5c-1.1-1-2.3-1.8-3.8-2.3s-3.1-0.8-4.9-0.8c-3.8,0-6.6,0.8-8.5,2.5
	c-1.9,1.7-2.9,4-2.9,6.9c0,1.9,0.8,3.7,2.3,5.2c1.6,1.5,3.7,2.7,6.5,3.4l3,0.8c1.9,0.5,3.3,1.1,4.3,2c1,0.8,1.4,1.9,1.4,3.1
	c0,1.4-0.7,2.5-2,3.3c-1.3,0.8-2.9,1.2-4.9,1.2c-1.7,0-3.2-0.4-4.6-1.3s-2.4-2-3.2-3.5l-4.3,1.8c0.5,1.3,1.3,2.6,2.4,3.7
	c1.1,1.1,2.5,2,4.2,2.7s3.7,1,5.9,1S863.8,338.4,865.5,337.7 M841.5,298.3c0.6-0.6,0.9-1.4,0.9-2.2c0-0.9-0.3-1.6-0.9-2.2
	c-0.6-0.6-1.3-0.9-2.2-0.9s-1.5,0.3-2.2,0.9s-0.9,1.4-0.9,2.2c0,0.9,0.3,1.6,0.9,2.2s1.3,0.9,2.2,0.9
	C840.2,299.2,840.9,298.9,841.5,298.3 M841.7,306.5h-4.9V338h4.9V306.5z M808.8,314.8c0.9-1.4,2.1-2.6,3.6-3.4
	c1.5-0.8,3.1-1.2,4.8-1.2s3.2,0.4,4.6,1.2c1.3,0.8,2.4,1.9,3.2,3.4c0.8,1.5,1.2,3.2,1.2,5.2l1.3-1.1h-21.3l1.3,1
	C807.5,318,807.9,316.3,808.8,314.8 M823.3,337.8c1.8-0.7,3.3-1.6,4.6-2.8c1.3-1.2,2.3-2.6,3.1-4.3l-4.3-2.2c-0.8,1.7-2,3.1-3.5,4.1
	c-1.5,1-3.3,1.6-5.5,1.6c-2.1,0-3.9-0.5-5.5-1.4c-1.6-0.9-2.8-2.3-3.7-4.1c-0.9-1.8-1.3-4-1.3-6.5l-1.2,1.1h25.5
	c0-3.5-0.6-6.6-1.7-9.2c-1.2-2.6-2.8-4.6-4.9-6.1c-2.1-1.4-4.6-2.2-7.5-2.2s-5.6,0.7-7.9,2.1c-2.3,1.4-4.1,3.4-5.4,5.8
	c-1.3,2.5-1.9,5.3-1.9,8.6s0.7,6.1,1.9,8.6c1.3,2.5,3.1,4.4,5.4,5.8c2.3,1.4,5,2.1,8,2.1C819.6,338.8,821.6,338.4,823.3,337.8
	 M777.1,331.9c-1.5-1-2.7-2.4-3.5-4.1c-0.9-1.7-1.3-3.8-1.3-6.1s0.4-4.2,1.3-6s2-3.1,3.5-4.1c1.5-1,3.2-1.5,5.2-1.5s3.5,0.5,4.8,1.5
	s2.5,2.3,3.3,4.1c0.8,1.7,1.2,3.7,1.2,6s-0.4,4.3-1.2,6.1c-0.8,1.7-1.9,3.1-3.3,4.1c-1.4,1-3,1.5-4.8,1.5
	C780.3,333.4,778.6,332.9,777.1,331.9 M787.8,335.7c1.9-1.3,3.4-3.2,4.5-5.6s1.6-5.2,1.6-8.3s-0.5-6-1.6-8.4
	c-1.1-2.4-2.6-4.3-4.5-5.6c-1.9-1.3-4.2-2-6.8-2c-2.8,0-5.2,0.7-7.3,2c-2.1,1.3-3.7,3.2-4.9,5.6c-1.2,2.4-1.8,5.2-1.8,8.4
	s0.6,5.9,1.8,8.3c1.2,2.4,2.8,4.3,4.9,5.6c2.1,1.3,4.5,2,7.3,2C783.6,337.8,785.9,337.1,787.8,335.7 M789.1,349.5
	c2.3-1.2,4.1-3,5.4-5.5c1.3-2.4,2-5.5,2-9.1v-28.4h-4.9V335c0,2.7-0.4,5-1.3,6.7c-0.9,1.7-2.1,3-3.7,3.8s-3.4,1.2-5.3,1.2
	c-1.5,0-3-0.2-4.3-0.5c-1.3-0.3-2.5-0.7-3.5-1.1s-1.8-0.8-2.3-1.1l-1.8,4.1c0.5,0.3,1.3,0.7,2.4,1.2c1.1,0.5,2.5,0.9,4.1,1.3
	s3.4,0.6,5.4,0.6C784.1,351.4,786.7,350.7,789.1,349.5 M741.7,332.7c-1.5-1-2.7-2.4-3.6-4.2c-0.9-1.8-1.3-3.9-1.3-6.2
	s0.4-4.4,1.3-6.2c0.9-1.8,2-3.2,3.5-4.2c1.5-1,3.2-1.5,5.2-1.5s3.5,0.5,4.9,1.5c1.4,1,2.5,2.4,3.3,4.2s1.2,3.9,1.2,6.2
	s-0.4,4.4-1.2,6.2c-0.8,1.8-1.9,3.2-3.3,4.2c-1.4,1-3,1.5-4.8,1.5C744.9,334.2,743.2,333.7,741.7,332.7 M752.6,336.7
	c2-1.4,3.5-3.3,4.5-5.8c1.1-2.5,1.6-5.4,1.6-8.6s-0.5-6.1-1.6-8.6c-1.1-2.5-2.6-4.4-4.5-5.8s-4.2-2.1-6.8-2.1
	c-2.8,0-5.2,0.7-7.3,2.1c-2.1,1.4-3.7,3.3-4.9,5.8c-1.2,2.5-1.8,5.4-1.8,8.6s0.6,6.1,1.8,8.6c1.2,2.5,2.8,4.4,4.9,5.8
	c2.1,1.4,4.5,2.1,7.3,2.1C748.3,338.8,750.6,338.1,752.6,336.7 M761.1,338v-31.5h-4.9v25.6l0.2,5.9H761.1L761.1,338z M708.7,317
	h-27.9v4.5h27.9V317z M696.9,305h-4.4v28.6h4.4V305z"/>
<path class="st0" d="M1221.4,273.5l-1.5-3.5l-11.5-28h-5.2l13.3,31.5H1221.4L1221.4,273.5z M1214.3,285.7c1.2-0.7,2.2-1.7,3.1-3.1
	c0.8-1.3,1.7-2.9,2.4-4.8l14.8-35.9h-5.3l-11.4,28.1l-3.5,8.6c-0.5,1.1-1.1,2-1.8,2.6c-0.7,0.6-1.6,0.9-2.7,0.9
	c-0.4,0-1-0.1-1.7-0.3c-0.7-0.2-1.6-0.5-2.5-0.9l-1.8,4.2c1.2,0.5,2.2,0.9,3.3,1.2s1.9,0.5,2.7,0.5
	C1211.6,286.8,1213.1,286.4,1214.3,285.7 M1200.1,242h-19.5v4.5h19.5V242z M1198,273.8c0.9-0.3,1.8-0.8,2.9-1.5l-1.9-4.1
	c-0.8,0.6-1.4,1-1.9,1.1c-0.5,0.1-1,0.2-1.5,0.2c-1.5,0-2.7-0.4-3.5-1.3c-0.8-0.9-1.3-2.1-1.3-3.7v-32.4h-4.9v32.9
	c0,2.9,0.8,5.1,2.5,6.7c1.6,1.6,4,2.4,7,2.4C1196.2,274.2,1197.1,274.1,1198,273.8 M1176,233.7c0.6-0.6,0.9-1.4,0.9-2.2
	c0-0.9-0.3-1.6-0.9-2.2c-0.6-0.6-1.3-0.9-2.2-0.9c-0.9,0-1.5,0.3-2.2,0.9s-0.9,1.4-0.9,2.2s0.3,1.6,0.9,2.2c0.6,0.6,1.3,0.9,2.2,0.9
	C1174.6,234.7,1175.4,234.4,1176,233.7 M1176.2,242h-4.9v31.5h4.9V242z M1137.1,258.1v1.5c0,3.4,0.5,6.2,1.5,8.4s2.4,3.7,4.2,4.7
	c1.8,1,3.9,1.5,6.3,1.5c2.6,0,4.8-0.6,6.6-1.9c1.8-1.3,3.2-3.1,4.1-5.5c0.9-2.4,1.4-5.2,1.4-8.6h-2.4c0,3.5-0.8,6.3-2.2,8.2
	c-1.5,2-3.6,3-6.3,3c-1.6,0-3-0.3-4.2-0.9c-1.2-0.6-2.2-1.7-2.9-3.4c-0.7-1.6-1-4-1-7.1H1137.1L1137.1,258.1z M1142,242h-4.9v16.1
	h4.9V242z M1163.7,273.5V242h-4.9v25.7l0.3,5.8H1163.7z M1110.9,268.1c-1.5-1-2.7-2.4-3.6-4.2c-0.9-1.8-1.3-3.9-1.3-6.2
	s0.4-4.4,1.3-6.2c0.9-1.8,2-3.2,3.5-4.2s3.2-1.5,5.2-1.5c1.9,0,3.5,0.5,4.9,1.5c1.4,1,2.5,2.4,3.3,4.2s1.2,3.9,1.2,6.2
	s-0.4,4.4-1.2,6.2c-0.8,1.8-1.9,3.2-3.3,4.2c-1.4,1-3,1.5-4.8,1.5C1114.2,269.6,1112.5,269.1,1110.9,268.1 M1121.8,272.1
	c1.9-1.4,3.5-3.3,4.5-5.8c1.1-2.5,1.6-5.4,1.6-8.6s-0.5-6.1-1.6-8.6c-1.1-2.5-2.6-4.4-4.5-5.8c-2-1.4-4.2-2.1-6.8-2.1
	c-2.8,0-5.2,0.7-7.3,2.1c-2.1,1.4-3.7,3.3-4.9,5.8c-1.2,2.5-1.8,5.4-1.8,8.6s0.6,6.1,1.8,8.6c1.2,2.5,2.8,4.4,4.9,5.8
	c2.1,1.4,4.5,2.1,7.3,2.1C1117.6,274.2,1119.9,273.5,1121.8,272.1 M1130.4,286V242h-4.7l-0.2,5.9V286H1130.4z M1074.8,250.3
	c0.9-1.4,2.1-2.6,3.6-3.4c1.5-0.8,3.1-1.2,4.8-1.2c1.7,0,3.2,0.4,4.6,1.2c1.3,0.8,2.4,1.9,3.2,3.4c0.8,1.5,1.2,3.2,1.2,5.2l1.3-1.1
	h-21.3l1.3,1C1073.4,253.4,1073.9,251.7,1074.8,250.3 M1089.2,273.2c1.8-0.7,3.3-1.6,4.6-2.8c1.3-1.2,2.3-2.6,3.1-4.3l-4.3-2.2
	c-0.8,1.7-2,3.1-3.5,4.1c-1.5,1-3.3,1.6-5.5,1.6c-2.1,0-3.9-0.5-5.5-1.4c-1.6-0.9-2.8-2.3-3.7-4.1c-0.9-1.8-1.3-4-1.3-6.5l-1.2,1.1
	h25.5c0-3.5-0.6-6.6-1.7-9.2s-2.8-4.6-4.9-6.1c-2.1-1.4-4.6-2.2-7.5-2.2c-2.9,0-5.6,0.7-7.9,2.1s-4.1,3.4-5.4,5.8
	c-1.3,2.5-1.9,5.3-1.9,8.6c0,3.2,0.7,6.1,1.9,8.6c1.3,2.5,3.1,4.4,5.4,5.8c2.3,1.4,5,2.1,8,2.1
	C1085.6,274.2,1087.5,273.9,1089.2,273.2"/>
<path class="st0" d="M1026,250.3c0.9-1.4,2.1-2.6,3.6-3.4c1.5-0.8,3.1-1.2,4.8-1.2s3.2,0.4,4.6,1.2c1.3,0.8,2.4,1.9,3.2,3.4
	c0.8,1.5,1.2,3.2,1.2,5.2l1.3-1.1h-21.3l1.3,1C1024.7,253.5,1025.1,251.7,1026,250.3 M1040.5,273.2c1.8-0.7,3.3-1.6,4.6-2.8
	c1.3-1.2,2.3-2.6,3.1-4.3l-4.3-2.2c-0.8,1.7-2,3.1-3.5,4.1c-1.5,1.1-3.3,1.6-5.5,1.6c-2.1,0-3.9-0.5-5.5-1.4
	c-1.6-0.9-2.8-2.3-3.7-4.1c-0.9-1.8-1.3-4-1.3-6.5l-1.2,1.1h25.5c0-3.5-0.6-6.6-1.7-9.2s-2.8-4.6-4.9-6.1c-2.1-1.4-4.6-2.2-7.5-2.2
	s-5.6,0.7-7.9,2.1s-4.1,3.4-5.4,5.8c-1.3,2.5-1.9,5.3-1.9,8.6c0,3.2,0.7,6.1,1.9,8.6c1.3,2.5,3.1,4.4,5.4,5.8c2.3,1.4,4.9,2.1,8,2.1
	C1036.8,274.3,1038.7,273.9,1040.5,273.2 M994.3,267.4c-1.5-1-2.7-2.4-3.5-4.1c-0.9-1.7-1.3-3.8-1.3-6.1c0-2.3,0.4-4.2,1.3-6
	c0.8-1.7,2-3.1,3.5-4.1c1.5-1,3.2-1.5,5.2-1.5s3.5,0.5,4.8,1.5c1.4,1,2.5,2.4,3.3,4.1c0.8,1.7,1.2,3.7,1.2,6c0,2.2-0.4,4.3-1.2,6.1
	c-0.8,1.7-1.9,3.1-3.3,4.1c-1.4,1-3,1.5-4.8,1.5C997.5,268.9,995.8,268.4,994.3,267.4 M1005,271.2c1.9-1.3,3.4-3.2,4.5-5.6
	c1.1-2.4,1.6-5.2,1.6-8.3c0-3.2-0.5-6-1.6-8.4c-1.1-2.4-2.6-4.3-4.5-5.6c-1.9-1.3-4.2-2-6.8-2c-2.8,0-5.2,0.7-7.3,2
	c-2.1,1.3-3.7,3.2-4.9,5.6c-1.2,2.4-1.8,5.2-1.8,8.4c0,3.2,0.6,5.9,1.8,8.3c1.2,2.4,2.8,4.3,4.9,5.6c2.1,1.3,4.5,2,7.3,2
	C1000.8,273.2,1003.1,272.6,1005,271.2 M1006.2,285c2.3-1.2,4.1-3,5.4-5.5c1.3-2.4,2-5.5,2-9.1V242h-4.9v28.5c0,2.7-0.4,5-1.3,6.7
	c-0.9,1.7-2.1,3-3.7,3.8s-3.4,1.2-5.3,1.2c-1.5,0-3-0.2-4.3-0.5c-1.3-0.3-2.5-0.7-3.5-1.1s-1.8-0.8-2.3-1.1l-1.8,4.1
	c0.5,0.3,1.3,0.7,2.4,1.2c1.1,0.5,2.5,0.9,4.1,1.3c1.6,0.4,3.4,0.6,5.4,0.6C1001.3,286.8,1003.9,286.2,1006.2,285 M958.9,268.1
	c-1.5-1-2.7-2.4-3.6-4.2c-0.9-1.8-1.3-3.9-1.3-6.2c0-2.3,0.4-4.4,1.3-6.2c0.9-1.8,2-3.2,3.5-4.2s3.2-1.5,5.2-1.5s3.5,0.5,4.9,1.5
	s2.5,2.4,3.3,4.2s1.2,3.9,1.2,6.2c0,2.3-0.4,4.4-1.2,6.2c-0.8,1.8-1.9,3.2-3.3,4.2c-1.4,1-3,1.5-4.8,1.5
	C962.1,269.7,960.4,269.2,958.9,268.1 M969.7,272.2c2-1.4,3.5-3.3,4.5-5.8s1.6-5.4,1.6-8.6c0-3.2-0.5-6.1-1.6-8.6
	c-1.1-2.5-2.6-4.4-4.5-5.8c-2-1.4-4.2-2.1-6.8-2.1c-2.8,0-5.2,0.7-7.3,2.1c-2.1,1.4-3.7,3.3-4.9,5.8c-1.2,2.5-1.8,5.4-1.8,8.6
	s0.6,6.1,1.8,8.6c1.2,2.5,2.8,4.4,4.9,5.8c2.1,1.4,4.5,2.1,7.3,2.1C965.5,274.3,967.8,273.6,969.7,272.2 M978.3,273.5V242h-4.9v25.6
	l0.2,5.9H978.3z M919.5,242h-4.9v31.5h4.9V242z M919.5,256.2c0-2.4,0.5-4.3,1.6-5.7c1.1-1.4,2.4-2.4,4.1-3c1.7-0.6,3.4-0.9,5.2-0.9
	v-4.7c-2.2,0-4.3,0.5-6.3,1.5c-2,1-3.6,2.6-4.9,4.7s-1.9,4.9-1.9,8.3L919.5,256.2L919.5,256.2z M888.1,268.1c-1.6-1-2.8-2.4-3.7-4.2
	c-0.9-1.8-1.3-3.8-1.3-6.1c0-2.3,0.4-4.4,1.3-6.2c0.9-1.8,2.1-3.1,3.6-4.1c1.5-1,3.3-1.5,5.3-1.5s3.9,0.5,5.4,1.5
	c1.6,1,2.8,2.4,3.7,4.2c0.9,1.8,1.3,3.8,1.3,6.1c0,2.3-0.4,4.3-1.3,6.1c-0.9,1.8-2.1,3.2-3.6,4.2c-1.5,1-3.3,1.5-5.3,1.5
	S889.7,269.1,888.1,268.1 M901.5,272.2c2.3-1.4,4.1-3.4,5.4-5.8c1.3-2.5,1.9-5.3,1.9-8.6c0-3.2-0.7-6.1-1.9-8.6
	c-1.3-2.5-3.1-4.4-5.4-5.8c-2.3-1.4-5-2.1-8-2.1s-5.7,0.7-8,2.1s-4.1,3.4-5.4,5.8c-1.3,2.5-1.9,5.3-1.9,8.6c0,3.2,0.7,6.1,2,8.6
	c1.3,2.5,3.1,4.4,5.5,5.8c2.3,1.4,5,2.1,8,2.1S899.2,273.6,901.5,272.2 M876.4,242h-19.5v4.3h19.5V242z M867.5,273.5v-34.7
	c0-2,0.4-3.4,1.1-4.4c0.7-0.9,1.8-1.4,3.2-1.4c0.5,0,1,0.1,1.7,0.3s1.5,0.5,2.4,0.9l1.8-4c-1.2-0.5-2.2-1-3.3-1.3
	c-1-0.3-2-0.4-2.8-0.4c-3.1,0-5.4,0.8-6.9,2.5s-2.2,4.1-2.2,7.4v35.1L867.5,273.5L867.5,273.5z M817.4,268.2c-1.4-1-2.5-2.4-3.3-4.2
	c-0.8-1.8-1.2-3.9-1.2-6.2c0-2.3,0.4-4.4,1.2-6.2s1.9-3.2,3.3-4.2c1.4-1,3-1.5,4.8-1.5c2,0,3.7,0.5,5.2,1.5s2.7,2.4,3.5,4.2
	c0.8,1.8,1.3,3.9,1.3,6.2c0,2.3-0.4,4.4-1.3,6.2s-2.1,3.2-3.6,4.2c-1.5,1-3.2,1.5-5.2,1.5C820.4,269.7,818.8,269.2,817.4,268.2
	 M830.6,272.2c2.1-1.4,3.7-3.3,4.9-5.8c1.2-2.5,1.8-5.4,1.8-8.6c0-3.2-0.6-6.1-1.8-8.6s-2.8-4.4-4.9-5.8c-2.1-1.4-4.5-2.1-7.3-2.1
	c-2.6,0-4.9,0.7-6.8,2.1c-2,1.4-3.5,3.3-4.5,5.8c-1.1,2.5-1.6,5.4-1.6,8.6s0.5,6.1,1.6,8.6c1.1,2.5,2.6,4.4,4.5,5.8s4.2,2.1,6.8,2.1
	C826,274.3,828.5,273.6,830.6,272.2 M812.6,273.5l0.2-5.9v-38.2h-4.9v44.1H812.6z M773.9,258.2v1.5c0,3.4,0.5,6.2,1.5,8.4
	c1,2.2,2.4,3.7,4.2,4.7s3.9,1.5,6.3,1.5c2.6,0,4.8-0.6,6.6-1.9s3.2-3.1,4.1-5.5c1-2.4,1.4-5.2,1.4-8.6h-2.4c0,3.5-0.8,6.3-2.2,8.2
	c-1.5,2-3.6,3-6.3,3c-1.6,0-3-0.3-4.2-0.9c-1.2-0.6-2.2-1.7-2.9-3.4s-1-4-1-7.1H773.9L773.9,258.2z M778.9,242h-4.9v16.1h4.9V242z
	 M800.5,273.5V242h-4.9v25.7l0.3,5.8H800.5L800.5,273.5z M767.7,257.4v-1.5c0-3.5-0.4-6.3-1.5-8.4s-2.4-3.7-4.2-4.7
	c-1.8-1-3.9-1.5-6.3-1.5c-2.5,0-4.7,0.6-6.5,1.9s-3.2,3.1-4.2,5.5c-1,2.4-1.5,5.2-1.5,8.6h2.4c0-3.6,0.8-6.3,2.2-8.3
	s3.6-2.9,6.3-2.9c1.6,0,3,0.3,4.2,0.9c1.2,0.6,2.2,1.7,2.9,3.4s1.1,4,1.1,7.1H767.7L767.7,257.4z M767.7,257.4h-4.9v16.1h4.9V257.4z
	 M746,229.5H741v44.1h4.9V229.5z M712.5,256.2h-24v4.8h24V256.2z M685.7,273.5l17.3-44.1h-5.3l-17.6,44.1H685.7z M720.8,273.5
	l-17.6-44.1h-5.2l17.3,44.1H720.8z"/>
</svg>
