<?xml version="1.0" encoding="utf-8"?>
<!-- Generator: Adobe Illustrator 27.9.0, SVG Export Plug-In . SVG Version: 6.00 Build 0)  -->
<svg version="1.1" xmlns="http://www.w3.org/2000/svg" xmlns:xlink="http://www.w3.org/1999/xlink" x="0px" y="0px"
	 viewBox="0 0 1238.4 352.8" style="enable-background:new 0 0 1238.4 352.8;" xml:space="preserve">
<style type="text/css">
	.st0{fill:#FFFFFF;}
	.st1{display:none;}
	.st2{display:inline;fill:#FFFFFF;}
	.st3{display:inline;}
</style>
<g id="a">
	<path class="st0" d="M598.4,84.5V0c-93.3,0-168.9,75.6-168.9,168.9c0,46.6-37.8,84.5-84.5,84.5v84.5c93.3,0,168.9-75.6,168.9-168.9
		C513.9,122.3,551.7,84.5,598.4,84.5"/>
	<path class="st0" d="M253.4,253.4H84.5V84.5h168.9V253.4z M337.8,168.9C337.8,75.6,262.2,0,168.9,0S0,75.6,0,168.9
		s75.6,168.9,168.9,168.9S337.8,262.2,337.8,168.9"/>
	<path class="st0" d="M696.1,44c0,4.8,1.1,9.1,3.3,13c2.2,4,5.2,7,9.1,9.3c3.8,2.2,8.1,3.3,12.9,3.3s9-1.1,12.9-3.3
		c3.8-2.2,6.9-5.3,9.1-9.3c2.2-4,3.3-8.3,3.3-13s-1.1-9.1-3.3-13c-2.2-4-5.2-7-9.1-9.3s-8.1-3.3-12.9-3.3s-9,1.1-12.9,3.3
		c-3.8,2.2-6.9,5.3-9.1,9.3C697.3,34.9,696.1,39.2,696.1,44 M680.7,44c0-7.4,1.8-14.1,5.5-20.3c3.6-6.1,8.6-11,14.8-14.6
		s13.1-5.4,20.5-5.4s14.2,1.8,20.5,5.4s11.2,8.4,14.8,14.6c3.6,6.1,5.5,12.9,5.5,20.3s-1.8,14.1-5.5,20.3s-8.6,11-14.8,14.6
		s-13.1,5.4-20.5,5.4s-14.2-1.8-20.5-5.4s-11.2-8.4-14.8-14.6C682.5,58.1,680.7,51.3,680.7,44"/>
	<rect x="769.8" y="0.1" class="st0" width="14.8" height="82.2"/>
	<polygon class="st0" points="836.2,0.1 836.2,37.5 837.2,41.5 837.2,82.3 851,82.3 851,0.1 	"/>
	<path class="st0" d="M837.2,55.3c0,2.8-0.6,5.3-1.9,7.6c-1.3,2.3-3,4.1-5.2,5.4c-2.2,1.3-4.7,1.9-7.4,1.9s-5.1-0.6-7.4-1.9
		s-4-3.1-5.2-5.4c-1.3-2.3-1.9-4.8-1.9-7.6s0.6-5.3,1.9-7.6c1.3-2.3,3-4.1,5.2-5.4c2.2-1.3,4.7-2,7.4-2s5.1,0.7,7.4,2
		c2.2,1.3,4,3.1,5.2,5.4S837.2,52.5,837.2,55.3 M843.3,55.4c0-5.2-1-10-2.9-14.3s-4.7-7.8-8.3-10.4s-7.8-3.9-12.6-3.9
		S810,28,806,30.5s-7.1,6-9.3,10.3s-3.4,9.2-3.4,14.4s1.1,10.1,3.4,14.4s5.4,7.8,9.3,10.3c4,2.5,8.5,3.8,13.5,3.8s9-1.3,12.6-3.9
		s6.4-6.1,8.3-10.4S843.3,60.4,843.3,55.4"/>
	<path class="st0" d="M902.7,59.8h-15.3c0,4.5,1.1,8.6,3.4,12.3c2.2,3.7,5.3,6.6,9.2,8.7s8,3.2,12.7,3.2s8.9-1.1,12.9-3.2
		s7-5,9.3-8.7c2.2-3.7,3.4-7.8,3.4-12.3s-1.1-8.6-3.4-12.3c-2.2-3.7-5.3-6.6-9.2-8.7c-3.8-2.1-8.1-3.2-12.8-3.2h-0.1
		c-2.5,0-4.6-0.8-6.4-2.5c-1.8-1.6-2.7-3.7-2.7-6.2s0.8-4.6,2.6-6.2c1.7-1.6,3.9-2.5,6.5-2.5s4.8,0.8,6.5,2.5
		c1.7,1.6,2.6,3.7,2.6,6.2h15.3c0-4.4-1.1-8.3-3.3-11.8s-5.2-6.3-8.9-8.3s-7.8-3-12.2-3s-8.4,1-12.1,3c-3.7,2-6.7,4.8-8.8,8.3
		s-3.3,7.5-3.3,11.8s1.1,8.2,3.3,11.8s5.1,6.3,8.8,8.3s7.8,3,12.3,3h0.1c2.8,0,5.2,0.9,7.1,2.7s2.8,4.2,2.8,7s-1,5.2-2.9,7
		s-4.4,2.7-7.3,2.7s-5.3-0.9-7.2-2.8C903.6,64.9,902.7,62.5,902.7,59.8"/>
	<path class="st0" d="M983.7,27.9c-3.2-1.1-6.5-1.8-10.1-1.8c-5.4,0-10.3,1.3-14.9,3.9c-4.5,2.6-8.1,6.1-10.8,10.6s-4,9.3-4,14.6
		s1.3,10.1,4,14.6s6.2,8,10.8,10.6c4.5,2.6,9.5,3.9,14.9,3.9c3.6,0,6.9-0.6,10.1-1.8V66.2c-0.8,0.7-1.6,1.4-2.6,1.9
		c-2.2,1.3-4.8,2-7.5,2s-5.3-0.7-7.5-2s-4-3.1-5.3-5.4s-2-4.8-2-7.7s0.7-5.3,2-7.6s3.1-4.1,5.3-5.4s4.8-2,7.5-2s5.3,0.7,7.5,2
		c1,0.6,1.8,1.2,2.6,2V27.9L983.7,27.9z"/>
	<path class="st0" d="M992.4,82.2h14.8V51.9c0-3.4,1-6.1,3-8.1s4.6-3.1,7.7-3.1s5.7,1,7.7,3c2,2,3,4.7,3,8.2v30.4h14.8V48.5
		c0-4.2-0.9-7.9-2.6-11.1s-4.1-5.8-7.2-7.7c-3.1-1.9-6.5-2.8-10.4-2.8c-4.8,0-8.8,1.4-12.2,4.3s-5.3,6.7-5.9,11.4l2.1,0.2V0h-14.8
		V82.2z"/>
	<path class="st0" d="M1095.4,55.2c0,2.8-0.7,5.4-2,7.7c-1.3,2.3-3.1,4.1-5.3,5.4c-2.2,1.3-4.8,2-7.5,2s-5.3-0.7-7.5-2
		s-4-3.1-5.3-5.4c-1.3-2.3-2-4.8-2-7.7s0.7-5.3,2-7.6s3.1-4.1,5.3-5.4s4.8-2,7.5-2s5.3,0.7,7.5,2s4,3.1,5.3,5.4
		C1094.7,49.8,1095.4,52.4,1095.4,55.2 M1110.2,55.2c0-5.3-1.3-10.1-4-14.6s-6.2-8-10.8-10.6c-4.5-2.6-9.5-3.9-14.9-3.9
		s-10.3,1.3-14.9,3.9c-4.5,2.6-8.1,6.1-10.8,10.6c-2.7,4.5-4,9.3-4,14.6s1.3,10.1,4,14.6s6.2,8,10.8,10.6c4.5,2.6,9.5,3.9,14.9,3.9
		s10.3-1.3,14.9-3.9s8.1-6.1,10.8-10.6C1108.9,65.3,1110.2,60.4,1110.2,55.2"/>
	<path class="st0" d="M1159.7,55.2c0,2.8-0.7,5.4-2,7.7c-1.3,2.3-3.1,4.1-5.3,5.4c-2.2,1.3-4.8,2-7.5,2s-5.3-0.7-7.5-2
		s-4-3.1-5.3-5.4c-1.3-2.3-2-4.8-2-7.7s0.7-5.3,2-7.6s3.1-4.1,5.3-5.4s4.8-2,7.5-2s5.3,0.7,7.5,2s4,3.1,5.3,5.4
		C1159,49.8,1159.7,52.4,1159.7,55.2 M1174.5,55.2c0-5.3-1.3-10.1-4-14.6s-6.2-8-10.8-10.6c-4.5-2.6-9.5-3.9-14.9-3.9
		s-10.3,1.3-14.9,3.9c-4.5,2.6-8.1,6.1-10.8,10.6c-2.7,4.5-4,9.3-4,14.6s1.3,10.1,4,14.6s6.2,8,10.8,10.6c4.5,2.6,9.5,3.9,14.9,3.9
		s10.3-1.3,14.9-3.9s8.1-6.1,10.8-10.6C1173.2,65.3,1174.5,60.4,1174.5,55.2"/>
	<rect x="1182.6" class="st0" width="14.8" height="82.2"/>
</g>
<g id="old_text" class="st1">
	<path class="st2" d="M1026,250.3c0.9-1.4,2.1-2.6,3.6-3.4c1.5-0.8,3.1-1.2,4.8-1.2s3.2,0.4,4.6,1.2c1.3,0.8,2.4,1.9,3.2,3.4
		c0.8,1.5,1.2,3.2,1.2,5.2l1.3-1.1h-21.3l1.3,1C1024.7,253.5,1025.1,251.7,1026,250.3 M1040.5,273.2c1.8-0.7,3.3-1.6,4.6-2.8
		c1.3-1.2,2.3-2.6,3.1-4.3l-4.3-2.2c-0.8,1.7-2,3.1-3.5,4.1c-1.5,1.1-3.3,1.6-5.5,1.6c-2.1,0-3.9-0.5-5.5-1.4s-2.8-2.3-3.7-4.1
		c-0.9-1.8-1.3-4-1.3-6.5l-1.2,1.1h25.5c0-3.5-0.6-6.6-1.7-9.2s-2.8-4.6-4.9-6.1c-2.1-1.4-4.6-2.2-7.5-2.2s-5.6,0.7-7.9,2.1
		s-4.1,3.4-5.4,5.8c-1.3,2.5-1.9,5.3-1.9,8.6c0,3.2,0.7,6.1,1.9,8.6c1.3,2.5,3.1,4.4,5.4,5.8s4.9,2.1,8,2.1
		C1036.8,274.3,1038.7,273.9,1040.5,273.2 M994.3,267.4c-1.5-1-2.7-2.4-3.5-4.1c-0.9-1.7-1.3-3.8-1.3-6.1c0-2.3,0.4-4.2,1.3-6
		c0.8-1.7,2-3.1,3.5-4.1s3.2-1.5,5.2-1.5s3.5,0.5,4.8,1.5c1.4,1,2.5,2.4,3.3,4.1c0.8,1.7,1.2,3.7,1.2,6c0,2.2-0.4,4.3-1.2,6.1
		c-0.8,1.7-1.9,3.1-3.3,4.1c-1.4,1-3,1.5-4.8,1.5C997.5,268.9,995.8,268.4,994.3,267.4 M1005,271.2c1.9-1.3,3.4-3.2,4.5-5.6
		s1.6-5.2,1.6-8.3c0-3.2-0.5-6-1.6-8.4s-2.6-4.3-4.5-5.6s-4.2-2-6.8-2c-2.8,0-5.2,0.7-7.3,2s-3.7,3.2-4.9,5.6
		c-1.2,2.4-1.8,5.2-1.8,8.4c0,3.2,0.6,5.9,1.8,8.3s2.8,4.3,4.9,5.6c2.1,1.3,4.5,2,7.3,2C1000.8,273.2,1003.1,272.6,1005,271.2
		 M1006.2,285c2.3-1.2,4.1-3,5.4-5.5c1.3-2.4,2-5.5,2-9.1V242h-4.9v28.5c0,2.7-0.4,5-1.3,6.7c-0.9,1.7-2.1,3-3.7,3.8
		s-3.4,1.2-5.3,1.2c-1.5,0-3-0.2-4.3-0.5s-2.5-0.7-3.5-1.1s-1.8-0.8-2.3-1.1l-1.8,4.1c0.5,0.3,1.3,0.7,2.4,1.2
		c1.1,0.5,2.5,0.9,4.1,1.3s3.4,0.6,5.4,0.6C1001.3,286.8,1003.9,286.2,1006.2,285 M958.9,268.1c-1.5-1-2.7-2.4-3.6-4.2
		c-0.9-1.8-1.3-3.9-1.3-6.2c0-2.3,0.4-4.4,1.3-6.2c0.9-1.8,2-3.2,3.5-4.2s3.2-1.5,5.2-1.5s3.5,0.5,4.9,1.5s2.5,2.4,3.3,4.2
		s1.2,3.9,1.2,6.2c0,2.3-0.4,4.4-1.2,6.2c-0.8,1.8-1.9,3.2-3.3,4.2c-1.4,1-3,1.5-4.8,1.5C962.1,269.7,960.4,269.2,958.9,268.1
		 M969.7,272.2c2-1.4,3.5-3.3,4.5-5.8s1.6-5.4,1.6-8.6c0-3.2-0.5-6.1-1.6-8.6s-2.6-4.4-4.5-5.8c-2-1.4-4.2-2.1-6.8-2.1
		c-2.8,0-5.2,0.7-7.3,2.1c-2.1,1.4-3.7,3.3-4.9,5.8s-1.8,5.4-1.8,8.6s0.6,6.1,1.8,8.6s2.8,4.4,4.9,5.8c2.1,1.4,4.5,2.1,7.3,2.1
		C965.5,274.3,967.8,273.6,969.7,272.2 M978.3,273.5V242h-4.9v25.6l0.2,5.9H978.3z M919.5,242h-4.9v31.5h4.9V242z M919.5,256.2
		c0-2.4,0.5-4.3,1.6-5.7s2.4-2.4,4.1-3c1.7-0.6,3.4-0.9,5.2-0.9v-4.7c-2.2,0-4.3,0.5-6.3,1.5s-3.6,2.6-4.9,4.7s-1.9,4.9-1.9,8.3
		L919.5,256.2L919.5,256.2z M888.1,268.1c-1.6-1-2.8-2.4-3.7-4.2c-0.9-1.8-1.3-3.8-1.3-6.1c0-2.3,0.4-4.4,1.3-6.2
		c0.9-1.8,2.1-3.1,3.6-4.1s3.3-1.5,5.3-1.5s3.9,0.5,5.4,1.5c1.6,1,2.8,2.4,3.7,4.2s1.3,3.8,1.3,6.1c0,2.3-0.4,4.3-1.3,6.1
		c-0.9,1.8-2.1,3.2-3.6,4.2s-3.3,1.5-5.3,1.5S889.7,269.1,888.1,268.1 M901.5,272.2c2.3-1.4,4.1-3.4,5.4-5.8
		c1.3-2.5,1.9-5.3,1.9-8.6c0-3.2-0.7-6.1-1.9-8.6c-1.3-2.5-3.1-4.4-5.4-5.8c-2.3-1.4-5-2.1-8-2.1s-5.7,0.7-8,2.1s-4.1,3.4-5.4,5.8
		c-1.3,2.5-1.9,5.3-1.9,8.6c0,3.2,0.7,6.1,2,8.6s3.1,4.4,5.5,5.8c2.3,1.4,5,2.1,8,2.1S899.2,273.6,901.5,272.2 M876.4,242h-19.5v4.3
		h19.5V242z M867.5,273.5v-34.7c0-2,0.4-3.4,1.1-4.4c0.7-0.9,1.8-1.4,3.2-1.4c0.5,0,1,0.1,1.7,0.3s1.5,0.5,2.4,0.9l1.8-4
		c-1.2-0.5-2.2-1-3.3-1.3c-1-0.3-2-0.4-2.8-0.4c-3.1,0-5.4,0.8-6.9,2.5s-2.2,4.1-2.2,7.4v35.1H867.5L867.5,273.5z M817.4,268.2
		c-1.4-1-2.5-2.4-3.3-4.2c-0.8-1.8-1.2-3.9-1.2-6.2c0-2.3,0.4-4.4,1.2-6.2s1.9-3.2,3.3-4.2c1.4-1,3-1.5,4.8-1.5c2,0,3.7,0.5,5.2,1.5
		s2.7,2.4,3.5,4.2s1.3,3.9,1.3,6.2c0,2.3-0.4,4.4-1.3,6.2s-2.1,3.2-3.6,4.2s-3.2,1.5-5.2,1.5C820.4,269.7,818.8,269.2,817.4,268.2
		 M830.6,272.2c2.1-1.4,3.7-3.3,4.9-5.8s1.8-5.4,1.8-8.6c0-3.2-0.6-6.1-1.8-8.6s-2.8-4.4-4.9-5.8c-2.1-1.4-4.5-2.1-7.3-2.1
		c-2.6,0-4.9,0.7-6.8,2.1c-2,1.4-3.5,3.3-4.5,5.8c-1.1,2.5-1.6,5.4-1.6,8.6s0.5,6.1,1.6,8.6s2.6,4.4,4.5,5.8s4.2,2.1,6.8,2.1
		C826,274.3,828.5,273.6,830.6,272.2 M812.6,273.5l0.2-5.9v-38.2h-4.9v44.1H812.6z M773.9,258.2v1.5c0,3.4,0.5,6.2,1.5,8.4
		c1,2.2,2.4,3.7,4.2,4.7s3.9,1.5,6.3,1.5c2.6,0,4.8-0.6,6.6-1.9s3.2-3.1,4.1-5.5c1-2.4,1.4-5.2,1.4-8.6h-2.4c0,3.5-0.8,6.3-2.2,8.2
		c-1.5,2-3.6,3-6.3,3c-1.6,0-3-0.3-4.2-0.9s-2.2-1.7-2.9-3.4s-1-4-1-7.1L773.9,258.2L773.9,258.2z M778.9,242H774v16.1h4.9V242z
		 M800.5,273.5V242h-4.9v25.7l0.3,5.8H800.5L800.5,273.5z M767.7,257.4v-1.5c0-3.5-0.4-6.3-1.5-8.4s-2.4-3.7-4.2-4.7
		s-3.9-1.5-6.3-1.5c-2.5,0-4.7,0.6-6.5,1.9s-3.2,3.1-4.2,5.5s-1.5,5.2-1.5,8.6h2.4c0-3.6,0.8-6.3,2.2-8.3s3.6-2.9,6.3-2.9
		c1.6,0,3,0.3,4.2,0.9c1.2,0.6,2.2,1.7,2.9,3.4s1.1,4,1.1,7.1L767.7,257.4L767.7,257.4z M767.7,257.4h-4.9v16.1h4.9V257.4z
		 M746,229.5h-5v44.1h4.9L746,229.5L746,229.5z M712.5,256.2h-24v4.8h24V256.2z M685.7,273.5l17.3-44.1h-5.3l-17.6,44.1H685.7z
		 M720.8,273.5l-17.6-44.1H698l17.3,44.1H720.8z"/>
	<path class="st2" d="M1221.4,273.5l-1.5-3.5l-11.5-28h-5.2l13.3,31.5H1221.4L1221.4,273.5z M1214.3,285.7c1.2-0.7,2.2-1.7,3.1-3.1
		c0.8-1.3,1.7-2.9,2.4-4.8l14.8-35.9h-5.3l-11.4,28.1l-3.5,8.6c-0.5,1.1-1.1,2-1.8,2.6c-0.7,0.6-1.6,0.9-2.7,0.9
		c-0.4,0-1-0.1-1.7-0.3c-0.7-0.2-1.6-0.5-2.5-0.9l-1.8,4.2c1.2,0.5,2.2,0.9,3.3,1.2s1.9,0.5,2.7,0.5
		C1211.6,286.8,1213.1,286.4,1214.3,285.7 M1200.1,242h-19.5v4.5h19.5V242z M1198,273.8c0.9-0.3,1.8-0.8,2.9-1.5l-1.9-4.1
		c-0.8,0.6-1.4,1-1.9,1.1s-1,0.2-1.5,0.2c-1.5,0-2.7-0.4-3.5-1.3s-1.3-2.1-1.3-3.7v-32.4h-4.9V265c0,2.9,0.8,5.1,2.5,6.7
		c1.6,1.6,4,2.4,7,2.4C1196.2,274.2,1197.1,274.1,1198,273.8 M1176,233.7c0.6-0.6,0.9-1.4,0.9-2.2c0-0.9-0.3-1.6-0.9-2.2
		c-0.6-0.6-1.3-0.9-2.2-0.9c-0.9,0-1.5,0.3-2.2,0.9s-0.9,1.4-0.9,2.2s0.3,1.6,0.9,2.2c0.6,0.6,1.3,0.9,2.2,0.9
		C1174.6,234.7,1175.4,234.4,1176,233.7 M1176.2,242h-4.9v31.5h4.9V242z M1137.1,258.1v1.5c0,3.4,0.5,6.2,1.5,8.4s2.4,3.7,4.2,4.7
		c1.8,1,3.9,1.5,6.3,1.5c2.6,0,4.8-0.6,6.6-1.9c1.8-1.3,3.2-3.1,4.1-5.5s1.4-5.2,1.4-8.6h-2.4c0,3.5-0.8,6.3-2.2,8.2
		c-1.5,2-3.6,3-6.3,3c-1.6,0-3-0.3-4.2-0.9s-2.2-1.7-2.9-3.4c-0.7-1.6-1-4-1-7.1L1137.1,258.1L1137.1,258.1z M1142,242h-4.9v16.1
		h4.9V242z M1163.7,273.5V242h-4.9v25.7l0.3,5.8H1163.7z M1110.9,268.1c-1.5-1-2.7-2.4-3.6-4.2c-0.9-1.8-1.3-3.9-1.3-6.2
		s0.4-4.4,1.3-6.2s2-3.2,3.5-4.2s3.2-1.5,5.2-1.5c1.9,0,3.5,0.5,4.9,1.5s2.5,2.4,3.3,4.2s1.2,3.9,1.2,6.2c0,2.3-0.4,4.4-1.2,6.2
		c-0.8,1.8-1.9,3.2-3.3,4.2s-3,1.5-4.8,1.5C1114.2,269.6,1112.5,269.1,1110.9,268.1 M1121.8,272.1c1.9-1.4,3.5-3.3,4.5-5.8
		c1.1-2.5,1.6-5.4,1.6-8.6s-0.5-6.1-1.6-8.6s-2.6-4.4-4.5-5.8c-2-1.4-4.2-2.1-6.8-2.1c-2.8,0-5.2,0.7-7.3,2.1
		c-2.1,1.4-3.7,3.3-4.9,5.8c-1.2,2.5-1.8,5.4-1.8,8.6s0.6,6.1,1.8,8.6c1.2,2.5,2.8,4.4,4.9,5.8s4.5,2.1,7.3,2.1
		C1117.6,274.2,1119.9,273.5,1121.8,272.1 M1130.4,286v-44h-4.7l-0.2,5.9V286H1130.4z M1074.8,250.3c0.9-1.4,2.1-2.6,3.6-3.4
		c1.5-0.8,3.1-1.2,4.8-1.2c1.7,0,3.2,0.4,4.6,1.2c1.3,0.8,2.4,1.9,3.2,3.4c0.8,1.5,1.2,3.2,1.2,5.2l1.3-1.1h-21.3l1.3,1
		C1073.4,253.4,1073.9,251.7,1074.8,250.3 M1089.2,273.2c1.8-0.7,3.3-1.6,4.6-2.8c1.3-1.2,2.3-2.6,3.1-4.3l-4.3-2.2
		c-0.8,1.7-2,3.1-3.5,4.1s-3.3,1.6-5.5,1.6c-2.1,0-3.9-0.5-5.5-1.4s-2.8-2.3-3.7-4.1c-0.9-1.8-1.3-4-1.3-6.5l-1.2,1.1h25.5
		c0-3.5-0.6-6.6-1.7-9.2s-2.8-4.6-4.9-6.1c-2.1-1.4-4.6-2.2-7.5-2.2s-5.6,0.7-7.9,2.1s-4.1,3.4-5.4,5.8c-1.3,2.5-1.9,5.3-1.9,8.6
		c0,3.2,0.7,6.1,1.9,8.6c1.3,2.5,3.1,4.4,5.4,5.8s5,2.1,8,2.1C1085.6,274.2,1087.5,273.9,1089.2,273.2"/>
	<path class="st2" d="M881.4,338v-16.3c0-3.6,0.7-6.3,2-8.3s3.2-2.9,5.6-2.9c1.4,0,2.6,0.3,3.7,0.9s1.9,1.7,2.6,3.4s1,4,1,7.1V338
		h4.9v-16.3c0-3.6,0.7-6.3,2-8.3s3.2-2.9,5.7-2.9c1.4,0,2.6,0.3,3.7,0.9s1.9,1.7,2.6,3.4s1,4,1,7.1V338h4.9v-18
		c0-4.8-0.9-8.4-2.9-10.7c-2-2.3-4.7-3.5-8.2-3.5c-2.3,0-4.3,0.6-5.9,1.8c-1.7,1.2-2.9,3-3.8,5.3c-0.8-2.4-2.1-4.2-3.8-5.4
		c-1.8-1.2-3.9-1.8-6.3-1.8c-2,0-3.7,0.4-5.2,1.3s-2.7,2.2-3.6,3.8l-0.2-4.4h-4.6V338H881.4L881.4,338z M865.5,337.7
		c1.7-0.7,3-1.8,4-3.2c1-1.4,1.5-3,1.5-4.9c0-1.4-0.3-2.8-1.1-4c-0.7-1.3-1.7-2.4-3.1-3.4c-1.4-1-3-1.7-5.1-2.2l-3.1-0.8
		c-1.7-0.5-3-1.1-3.9-1.8c-0.9-0.7-1.3-1.5-1.3-2.4c0-1.5,0.5-2.6,1.6-3.4s2.6-1.2,4.4-1.2c1.8,0,3.3,0.3,4.5,0.9s2.1,1.7,2.7,3.1
		l4.3-2c-0.5-1.3-1.3-2.5-2.3-3.5c-1.1-1-2.3-1.8-3.8-2.3s-3.1-0.8-4.9-0.8c-3.8,0-6.6,0.8-8.5,2.5s-2.9,4-2.9,6.9
		c0,1.9,0.8,3.7,2.3,5.2c1.6,1.5,3.7,2.7,6.5,3.4l3,0.8c1.9,0.5,3.3,1.1,4.3,2c1,0.8,1.4,1.9,1.4,3.1c0,1.4-0.7,2.5-2,3.3
		s-2.9,1.2-4.9,1.2c-1.7,0-3.2-0.4-4.6-1.3s-2.4-2-3.2-3.5l-4.3,1.8c0.5,1.3,1.3,2.6,2.4,3.7c1.1,1.1,2.5,2,4.2,2.7s3.7,1,5.9,1
		S863.8,338.4,865.5,337.7 M841.5,298.3c0.6-0.6,0.9-1.4,0.9-2.2c0-0.9-0.3-1.6-0.9-2.2c-0.6-0.6-1.3-0.9-2.2-0.9s-1.5,0.3-2.2,0.9
		s-0.9,1.4-0.9,2.2c0,0.9,0.3,1.6,0.9,2.2s1.3,0.9,2.2,0.9C840.2,299.2,840.9,298.9,841.5,298.3 M841.7,306.5h-4.9V338h4.9V306.5z
		 M808.8,314.8c0.9-1.4,2.1-2.6,3.6-3.4s3.1-1.2,4.8-1.2s3.2,0.4,4.6,1.2c1.3,0.8,2.4,1.9,3.2,3.4s1.2,3.2,1.2,5.2l1.3-1.1h-21.3
		l1.3,1C807.5,318,807.9,316.3,808.8,314.8 M823.3,337.8c1.8-0.7,3.3-1.6,4.6-2.8c1.3-1.2,2.3-2.6,3.1-4.3l-4.3-2.2
		c-0.8,1.7-2,3.1-3.5,4.1s-3.3,1.6-5.5,1.6c-2.1,0-3.9-0.5-5.5-1.4s-2.8-2.3-3.7-4.1c-0.9-1.8-1.3-4-1.3-6.5l-1.2,1.1h25.5
		c0-3.5-0.6-6.6-1.7-9.2c-1.2-2.6-2.8-4.6-4.9-6.1c-2.1-1.4-4.6-2.2-7.5-2.2s-5.6,0.7-7.9,2.1c-2.3,1.4-4.1,3.4-5.4,5.8
		c-1.3,2.5-1.9,5.3-1.9,8.6s0.7,6.1,1.9,8.6c1.3,2.5,3.1,4.4,5.4,5.8c2.3,1.4,5,2.1,8,2.1C819.6,338.8,821.6,338.4,823.3,337.8
		 M777.1,331.9c-1.5-1-2.7-2.4-3.5-4.1c-0.9-1.7-1.3-3.8-1.3-6.1s0.4-4.2,1.3-6s2-3.1,3.5-4.1s3.2-1.5,5.2-1.5s3.5,0.5,4.8,1.5
		s2.5,2.3,3.3,4.1c0.8,1.7,1.2,3.7,1.2,6s-0.4,4.3-1.2,6.1c-0.8,1.7-1.9,3.1-3.3,4.1c-1.4,1-3,1.5-4.8,1.5
		C780.3,333.4,778.6,332.9,777.1,331.9 M787.8,335.7c1.9-1.3,3.4-3.2,4.5-5.6s1.6-5.2,1.6-8.3s-0.5-6-1.6-8.4s-2.6-4.3-4.5-5.6
		c-1.9-1.3-4.2-2-6.8-2c-2.8,0-5.2,0.7-7.3,2s-3.7,3.2-4.9,5.6s-1.8,5.2-1.8,8.4s0.6,5.9,1.8,8.3s2.8,4.3,4.9,5.6
		c2.1,1.3,4.5,2,7.3,2C783.6,337.8,785.9,337.1,787.8,335.7 M789.1,349.5c2.3-1.2,4.1-3,5.4-5.5c1.3-2.4,2-5.5,2-9.1v-28.4h-4.9V335
		c0,2.7-0.4,5-1.3,6.7c-0.9,1.7-2.1,3-3.7,3.8s-3.4,1.2-5.3,1.2c-1.5,0-3-0.2-4.3-0.5s-2.5-0.7-3.5-1.1s-1.8-0.8-2.3-1.1l-1.8,4.1
		c0.5,0.3,1.3,0.7,2.4,1.2c1.1,0.5,2.5,0.9,4.1,1.3s3.4,0.6,5.4,0.6C784.1,351.4,786.7,350.7,789.1,349.5 M741.7,332.7
		c-1.5-1-2.7-2.4-3.6-4.2c-0.9-1.8-1.3-3.9-1.3-6.2s0.4-4.4,1.3-6.2c0.9-1.8,2-3.2,3.5-4.2s3.2-1.5,5.2-1.5s3.5,0.5,4.9,1.5
		s2.5,2.4,3.3,4.2s1.2,3.9,1.2,6.2s-0.4,4.4-1.2,6.2c-0.8,1.8-1.9,3.2-3.3,4.2c-1.4,1-3,1.5-4.8,1.5
		C744.9,334.2,743.2,333.7,741.7,332.7 M752.6,336.7c2-1.4,3.5-3.3,4.5-5.8c1.1-2.5,1.6-5.4,1.6-8.6s-0.5-6.1-1.6-8.6
		s-2.6-4.4-4.5-5.8s-4.2-2.1-6.8-2.1c-2.8,0-5.2,0.7-7.3,2.1s-3.7,3.3-4.9,5.8s-1.8,5.4-1.8,8.6s0.6,6.1,1.8,8.6s2.8,4.4,4.9,5.8
		c2.1,1.4,4.5,2.1,7.3,2.1C748.3,338.8,750.6,338.1,752.6,336.7 M761.1,338v-31.5h-4.9v25.6l0.2,5.9H761.1L761.1,338z M708.7,317
		h-27.9v4.5h27.9V317z M696.9,305h-4.4v28.6h4.4V305z"/>
	<g class="st3">
		<path class="st0" d="M1224.7,337.6c1.7-0.7,3-1.8,4-3.2s1.5-3,1.5-4.9c0-1.4-0.3-2.8-1-4s-1.7-2.4-3.1-3.4s-3-1.7-5.1-2.2
			l-3.1-0.8c-1.7-0.5-3-1.1-3.9-1.8c-0.9-0.7-1.3-1.5-1.3-2.4c0-1.5,0.5-2.6,1.6-3.4s2.5-1.2,4.4-1.2c1.8,0,3.3,0.3,4.5,0.9
			s2.1,1.7,2.7,3.1l4.3-2c-0.5-1.3-1.3-2.5-2.3-3.5c-1.1-1-2.3-1.8-3.8-2.3s-3.1-0.8-4.9-0.8c-3.8,0-6.6,0.8-8.5,2.5s-2.9,4-2.9,7
			c0,1.9,0.8,3.7,2.3,5.2s3.7,2.7,6.5,3.4l3,0.8c1.9,0.5,3.3,1.1,4.3,2c1,0.8,1.4,1.9,1.4,3.1c0,1.4-0.7,2.5-2,3.3s-2.9,1.2-4.9,1.2
			c-1.7,0-3.2-0.4-4.6-1.3s-2.4-2-3.2-3.5l-4.3,1.8c0.5,1.3,1.3,2.6,2.4,3.7s2.5,2,4.2,2.7s3.7,1,5.9,1S1223,338.3,1224.7,337.6
			 M1196.9,337.6c1.7-0.7,3-1.8,4-3.2c1-1.4,1.5-3,1.5-4.9c0-1.4-0.3-2.8-1.1-4c-0.7-1.3-1.7-2.4-3.1-3.4s-3-1.7-5.1-2.2l-3.1-0.8
			c-1.7-0.5-3-1.1-3.9-1.8c-0.9-0.7-1.3-1.5-1.3-2.4c0-1.5,0.5-2.6,1.6-3.4s2.5-1.2,4.4-1.2c1.8,0,3.3,0.3,4.5,0.9s2.1,1.7,2.6,3.1
			l4.3-2c-0.5-1.3-1.3-2.5-2.3-3.5c-1.1-1-2.3-1.8-3.8-2.3s-3.1-0.8-4.9-0.8c-3.8,0-6.6,0.8-8.5,2.5s-2.9,4-2.9,7
			c0,1.9,0.8,3.7,2.3,5.2c1.6,1.5,3.7,2.7,6.5,3.4l3,0.8c1.9,0.5,3.3,1.1,4.3,2c1,0.8,1.5,1.9,1.5,3.1c0,1.4-0.7,2.5-2,3.3
			s-2.9,1.2-4.9,1.2c-1.7,0-3.2-0.4-4.6-1.3s-2.5-2-3.2-3.5l-4.3,1.8c0.5,1.3,1.3,2.6,2.4,3.7s2.5,2,4.2,2.7s3.7,1,5.9,1
			S1195.2,338.3,1196.9,337.6 M1152.5,314.7c0.9-1.5,2.1-2.6,3.6-3.4s3.1-1.2,4.8-1.2s3.2,0.4,4.6,1.2c1.3,0.8,2.4,1.9,3.1,3.4
			c0.8,1.5,1.2,3.2,1.2,5.2l1.3-1.1h-21.3l1.3,1C1151.1,317.9,1151.6,316.2,1152.5,314.7 M1166.9,337.7c1.8-0.7,3.3-1.6,4.6-2.8
			c1.3-1.2,2.3-2.6,3.1-4.3l-4.3-2.2c-0.8,1.7-2,3.1-3.5,4.1s-3.3,1.6-5.5,1.6c-2.1,0-3.9-0.5-5.5-1.4s-2.8-2.3-3.7-4.1
			c-0.9-1.8-1.3-4-1.3-6.5l-1.2,1.1h25.5c0-3.5-0.6-6.6-1.7-9.2s-2.8-4.6-4.9-6.1s-4.6-2.2-7.5-2.2s-5.6,0.7-7.9,2.1
			s-4.1,3.4-5.4,5.8c-1.3,2.5-1.9,5.3-1.9,8.6s0.7,6.1,1.9,8.6c1.3,2.5,3.1,4.4,5.4,5.8s5,2.1,8,2.1
			C1163.2,338.7,1165.2,338.3,1166.9,337.7 M1140.5,321.8v-1.5c0-3.5-0.4-6.3-1.5-8.4c-1-2.1-2.4-3.7-4.2-4.7
			c-1.8-1-3.9-1.5-6.3-1.5c-2.5,0-4.7,0.6-6.5,1.9s-3.2,3.1-4.1,5.5s-1.4,5.2-1.4,8.6h2.4c0-3.6,0.8-6.3,2.2-8.3s3.6-2.9,6.3-2.9
			c1.6,0,3,0.3,4.2,0.9s2.2,1.7,2.9,3.4c0.7,1.6,1,4,1,7.1h5V321.8z M1140.5,321.8h-4.9v16.1h4.9V321.8L1140.5,321.8z M1118.9,337.9
			v-25.7l-0.3-5.8h-4.6v31.5H1118.9z M1086.1,314.7c0.9-1.5,2.1-2.6,3.6-3.4s3.1-1.2,4.8-1.2c1.7,0,3.2,0.4,4.6,1.2
			c1.3,0.8,2.4,1.9,3.2,3.4c0.8,1.5,1.2,3.2,1.2,5.2l1.3-1.1h-21.3l1.3,1C1084.7,317.9,1085.2,316.2,1086.1,314.7 M1100.5,337.7
			c1.8-0.7,3.3-1.6,4.6-2.8c1.3-1.2,2.3-2.6,3.1-4.3l-4.3-2.2c-0.8,1.7-2,3.1-3.5,4.1s-3.3,1.6-5.5,1.6c-2.1,0-3.9-0.5-5.5-1.4
			c-1.6-1-2.9-2.3-3.7-4.1c-0.9-1.8-1.3-4-1.3-6.5l-1.2,1.1h25.5c0-3.5-0.6-6.6-1.7-9.2c-1.2-2.6-2.8-4.6-4.9-6.1s-4.6-2.2-7.5-2.2
			s-5.6,0.7-7.9,2.1s-4.1,3.4-5.4,5.8c-1.3,2.5-1.9,5.3-1.9,8.6s0.7,6.1,1.9,8.6c1.3,2.5,3.1,4.4,5.4,5.8s5,2.1,8,2.1
			C1096.8,338.7,1098.8,338.3,1100.5,337.7 M1066.9,306.4h-4.9v31.5h4.9V306.4z M1066.9,320.6c0-2.4,0.5-4.3,1.6-5.7
			c1.1-1.4,2.4-2.4,4.1-3s3.4-0.9,5.2-0.9v-4.7c-2.2,0-4.3,0.5-6.3,1.5s-3.6,2.6-4.9,4.7s-1.9,4.9-1.9,8.3L1066.9,320.6
			L1066.9,320.6z M1034.9,332.6c-1.5-1-2.7-2.4-3.6-4.2c-0.9-1.8-1.3-3.9-1.3-6.2s0.4-4.4,1.3-6.2c0.9-1.8,2.1-3.2,3.6-4.2
			s3.2-1.5,5.2-1.5s3.5,0.5,4.9,1.5s2.5,2.4,3.3,4.2c0.8,1.8,1.2,3.9,1.2,6.2s-0.4,4.4-1.2,6.2c-0.8,1.8-1.9,3.2-3.3,4.2
			s-3,1.5-4.8,1.5C1038.2,334.1,1036.5,333.6,1034.9,332.6 M1045.8,336.6c2-1.4,3.5-3.3,4.5-5.8s1.6-5.4,1.6-8.6s-0.5-6.1-1.6-8.6
			s-2.6-4.4-4.5-5.8s-4.2-2.1-6.8-2.1c-2.8,0-5.2,0.7-7.3,2.1c-2.1,1.4-3.7,3.3-4.9,5.8c-1.2,2.5-1.8,5.4-1.8,8.6s0.6,6.1,1.8,8.6
			c1.2,2.5,2.8,4.4,4.9,5.8s4.5,2.1,7.3,2.1C1041.6,338.7,1043.9,338,1045.8,336.6 M1054.4,337.9v-31.5h-4.9V332l0.2,5.9H1054.4z
			 M1013,337.9l-10.3-31.5H998l10.3,31.5H1013z M991.9,337.9l-10.3-31.5h-5l10.5,31.5H991.9z M992,337.9l10.3-31.5h-4.6l-10.4,31.5
			H992z M1013.2,337.9l10.5-31.5h-5l-10.4,31.5H1013.2z M953,332.6c-1.5-1-2.7-2.4-3.6-4.2c-0.9-1.8-1.3-3.9-1.3-6.2
			s0.4-4.4,1.3-6.2c0.9-1.8,2-3.2,3.5-4.2s3.2-1.5,5.2-1.5s3.5,0.5,4.9,1.5s2.5,2.4,3.3,4.2s1.2,3.9,1.2,6.2s-0.4,4.4-1.2,6.2
			c-0.8,1.8-1.9,3.2-3.3,4.2c-1.4,1-3,1.5-4.8,1.5C956.3,334.1,954.5,333.6,953,332.6 M963.9,336.6c2-1.4,3.5-3.3,4.5-5.8
			s1.6-5.4,1.6-8.6s-0.5-6.1-1.6-8.6s-2.6-4.4-4.5-5.8s-4.2-2.1-6.8-2.1c-2.8,0-5.2,0.7-7.3,2.1s-3.7,3.3-4.9,5.8s-1.8,5.4-1.8,8.6
			s0.6,6.1,1.8,8.6s2.8,4.4,4.9,5.8c2.1,1.4,4.5,2.1,7.3,2.1C959.7,338.7,962,338,963.9,336.6 M972.5,337.9v-31.5h-4.9V332l0.2,5.9
			H972.5L972.5,337.9z"/>
	</g>
</g>
<g id="Layer_2">
	<g>
		<g>
			<path class="st0" d="M678.5,187.2l21.2-52.5h7.5l-20.8,52.5H678.5z M688.5,173.2v-6.6h30.2v6.6H688.5z M720.8,187.2L700,134.7
				h7.5l21.2,52.5H720.8z"/>
			<path class="st0" d="M752.7,187.2v-52.5h7.1v52.5H752.7z M778.6,168c0-3.4-0.4-6-1.2-7.8c-0.8-1.8-1.9-3-3.3-3.7
				c-1.4-0.7-2.9-1.1-4.7-1.1c-3.1,0-5.5,1.1-7.2,3.2c-1.7,2.2-2.5,5.2-2.5,9.1h-3c0-3.9,0.6-7.3,1.8-10.2c1.2-2.8,2.9-5,5-6.5
				s4.8-2.2,7.8-2.2c2.9,0,5.5,0.6,7.6,1.8c2.1,1.2,3.8,3.1,5,5.6c1.2,2.5,1.8,5.8,1.7,9.9v1.9H778.6z M778.6,187.2V168h7v19.2
				H778.6z"/>
			<path class="st0" d="M793.8,168.9v-19.2h7.1v19.2H793.8z M800.9,168.9c0,3.4,0.4,5.9,1.2,7.7s1.9,3.1,3.3,3.8
				c1.4,0.7,3,1.1,4.7,1.1c3,0,5.4-1.1,7.1-3.2c1.7-2.1,2.5-5.2,2.5-9.1h3.1c0,4-0.6,7.3-1.8,10.2c-1.2,2.8-2.8,5-5,6.5
				c-2.2,1.5-4.8,2.2-7.9,2.2c-2.9,0-5.4-0.6-7.6-1.8c-2.2-1.2-3.9-3.1-5-5.6c-1.2-2.5-1.8-5.8-1.8-9.9v-1.9H800.9z M820.2,187.2
				l-0.5-6.9v-30.6h7v37.5H820.2z"/>
			<path class="st0" d="M836.7,187.2v-52.5h7.1v45.5l-0.4,7H836.7z M856.2,188.1c-3.2,0-5.9-0.8-8.2-2.5c-2.3-1.6-4.1-3.9-5.4-6.9
				c-1.2-3-1.9-6.4-1.9-10.3c0-3.9,0.6-7.4,1.9-10.3c1.2-2.9,3-5.2,5.4-6.9c2.3-1.7,5.1-2.5,8.2-2.5c3.3,0,6.3,0.8,8.8,2.5
				c2.5,1.6,4.5,3.9,6,6.9s2.1,6.4,2.1,10.3c0,3.9-0.7,7.3-2.1,10.3s-3.4,5.2-6,6.9C862.5,187.3,859.5,188.1,856.2,188.1z
				 M854.4,181.7c2.2,0,4.2-0.6,5.9-1.7c1.7-1.1,3-2.7,4-4.7c1-2,1.5-4.3,1.5-6.8c0-2.6-0.5-4.9-1.4-6.9c-1-2-2.3-3.5-4-4.7
				s-3.7-1.7-5.9-1.7c-2.1,0-3.9,0.6-5.5,1.7s-2.9,2.7-3.8,4.7c-0.9,2-1.3,4.3-1.3,6.8c0,2.6,0.4,4.9,1.3,6.9c0.9,2,2.1,3.5,3.8,4.7
				C850.6,181.1,852.4,181.7,854.4,181.7z"/>
			<path class="st0" d="M896.3,155.6v-5.9h24.2v5.9H896.3z M902.9,187.2v-41.6c0-3.9,0.9-6.9,2.9-9c1.9-2,4.8-3,8.6-3
				c1.1,0,2.4,0.2,3.8,0.6s2.7,0.9,4.1,1.5l-2.6,5.5c-1.1-0.5-2-0.9-2.7-1.1c-0.8-0.2-1.4-0.3-2-0.3c-1.7,0-2.9,0.5-3.7,1.6
				c-0.8,1.1-1.2,2.7-1.2,5v40.9H902.9z"/>
			<path class="st0" d="M944.3,188.1c-3.8,0-7.1-0.8-9.9-2.5s-5.1-4-6.7-6.9s-2.4-6.3-2.4-10.2c0-3.8,0.8-7.2,2.4-10.2
				c1.6-2.9,3.8-5.3,6.7-6.9c2.9-1.7,6.1-2.5,9.8-2.5c3.8,0,7,0.8,9.9,2.5c2.8,1.7,5.1,4,6.7,6.9c1.6,3,2.4,6.4,2.4,10.2
				c0,3.9-0.8,7.2-2.4,10.2c-1.6,3-3.8,5.3-6.6,6.9C951.2,187.3,948,188.1,944.3,188.1z M944.3,181.6c2.2,0,4.2-0.6,6-1.7
				c1.7-1.1,3.1-2.7,4.1-4.6c1-2,1.5-4.2,1.5-6.8c0-2.6-0.5-4.9-1.5-6.8c-1-2-2.4-3.5-4.2-4.6c-1.8-1.1-3.8-1.7-6-1.7
				c-2.3,0-4.3,0.6-6.1,1.7c-1.8,1.1-3.1,2.7-4.1,4.7c-1,2-1.5,4.2-1.5,6.8c0,2.6,0.5,4.9,1.5,6.8c1,2,2.4,3.5,4.2,4.6
				S942,181.6,944.3,181.6z"/>
			<path class="st0" d="M970.9,187.2v-37.5h7.1v37.5H970.9z M975.2,167c0-4,0.8-7.4,2.3-9.9c1.5-2.5,3.5-4.4,6-5.7
				c2.4-1.2,5-1.9,7.7-1.9v6.8c-2.2,0-4.4,0.3-6.4,1s-3.7,1.8-5,3.3c-1.3,1.5-1.9,3.6-1.9,6.2L975.2,167z"/>
			<path class="st0" d="M1027.4,188.1c-4.5,0-7.9-1-10.4-3c-2.5-2-3.7-4.8-3.7-8.4c0-3.8,1.3-6.8,3.9-8.8c2.6-2,6.2-3,10.8-3h10.4
				v5.6h-8.5c-3.5,0-5.9,0.5-7.3,1.6c-1.4,1.1-2.1,2.6-2.1,4.5c0,1.8,0.7,3.1,2,4.1c1.3,1,3.2,1.5,5.5,1.5c2,0,3.8-0.4,5.3-1.3
				c1.5-0.9,2.7-2.1,3.5-3.7c0.8-1.6,1.3-3.4,1.3-5.5h2.5c0,5.1-1.1,9.1-3.3,12.1C1035.1,186.6,1031.8,188.1,1027.4,188.1z
				 M1038.4,187.2l-0.3-6.5v-13c0-2.7-0.3-5-0.9-6.9c-0.6-1.8-1.6-3.2-2.8-4.2c-1.3-0.9-3-1.4-5.1-1.4c-2,0-3.6,0.4-5.1,1.2
				c-1.4,0.8-2.6,2.1-3.6,3.8l-6.3-2.4c0.9-1.7,2-3.2,3.4-4.5c1.3-1.3,3-2.4,4.9-3.1c1.9-0.8,4.1-1.2,6.7-1.2c3.5,0,6.5,0.7,8.8,2.1
				c2.3,1.4,4.1,3.4,5.3,6.1c1.2,2.7,1.7,5.9,1.7,9.8l-0.1,20.4H1038.4z"/>
			<path class="st0" d="M1068.9,186.7c-3.4,0-6.4-0.8-8.9-2.4c-2.5-1.6-4.5-3.8-5.9-6.6c-1.4-2.8-2.1-6.1-2.1-9.8
				c0-3.8,0.7-7.2,2.1-10c1.4-2.8,3.4-5.1,5.9-6.7c2.5-1.6,5.5-2.4,8.9-2.4c3.1,0,5.8,0.8,8.1,2.4c2.3,1.6,4.1,3.8,5.4,6.7
				c1.3,2.9,1.9,6.2,1.9,10.1c0,3.7-0.6,7-1.9,9.8c-1.3,2.8-3.1,5-5.4,6.6S1072,186.7,1068.9,186.7z M1069.6,203.2
				c-2.5,0-4.8-0.2-6.8-0.7c-2.1-0.5-3.8-1-5.2-1.6c-1.4-0.6-2.5-1.1-3.1-1.6l2.7-5.8c0.6,0.4,1.6,0.9,2.8,1.4s2.6,1,4.2,1.3
				c1.6,0.4,3.4,0.6,5.3,0.6c2.3,0,4.3-0.5,6.1-1.4c1.8-0.9,3.2-2.4,4.2-4.3c1-2,1.5-4.5,1.5-7.5v-33.9h7.1v33.8
				c0,4.3-0.8,7.9-2.4,10.8c-1.6,2.9-3.9,5.1-6.7,6.6C1076.6,202.4,1073.3,203.2,1069.6,203.2z M1070.7,180.7c2.1,0,3.9-0.6,5.5-1.7
				c1.5-1.1,2.8-2.6,3.7-4.6s1.3-4.1,1.3-6.6c0-2.5-0.4-4.7-1.3-6.6c-0.9-1.9-2.1-3.4-3.7-4.5c-1.6-1.1-3.4-1.6-5.5-1.6
				c-2.2,0-4.1,0.5-5.8,1.6c-1.7,1.1-3,2.6-3.9,4.5c-1,1.9-1.4,4.1-1.4,6.6c0,2.5,0.5,4.7,1.5,6.6s2.3,3.4,4,4.6
				C1066.6,180.1,1068.5,180.7,1070.7,180.7z"/>
			<path class="st0" d="M1115,188.1c-3.7,0-6.9-0.8-9.7-2.5c-2.8-1.7-5-4-6.6-6.9c-1.6-3-2.4-6.3-2.4-10.2c0-3.8,0.8-7.2,2.4-10.2
				c1.6-2.9,3.8-5.3,6.6-6.9c2.8-1.7,6.1-2.5,9.7-2.5c3.5,0,6.5,0.9,9.1,2.6c2.6,1.7,4.6,4.2,6.1,7.3c1.5,3.2,2.2,6.9,2.2,11.2
				h-30.3l1.3-1.1c0,2.7,0.5,5,1.6,6.9c1,1.9,2.5,3.4,4.3,4.5c1.8,1,3.8,1.5,6.1,1.5c2.5,0,4.6-0.6,6.3-1.8c1.7-1.2,3-2.7,3.9-4.5
				l6.2,2.9c-1,1.9-2.3,3.7-3.9,5.1c-1.6,1.5-3.5,2.6-5.7,3.4C1120.1,187.7,1117.7,188.1,1115,188.1z M1103.9,165.5l-1.4-1.1h23.7
				l-1.4,1.1c0-2.2-0.5-4.1-1.3-5.7c-0.9-1.6-2.1-2.8-3.6-3.6s-3.2-1.2-5-1.2c-1.8,0-3.5,0.4-5.2,1.2c-1.7,0.8-3,2-4.1,3.6
				C1104.5,161.3,1103.9,163.2,1103.9,165.5z"/>
			<path class="st0" d="M699.3,264.1c-3.7,0-6.9-0.8-9.7-2.5c-2.8-1.7-5-4-6.6-6.9c-1.6-3-2.4-6.3-2.4-10.2c0-3.8,0.8-7.2,2.4-10.2
				c1.6-2.9,3.8-5.3,6.6-6.9c2.8-1.7,6.1-2.5,9.7-2.5c3.4,0,6.5,0.9,9.1,2.6s4.6,4.2,6.1,7.3c1.5,3.2,2.2,6.9,2.2,11.2h-30.3
				l1.3-1.1c0,2.7,0.5,5,1.6,6.9c1,1.9,2.5,3.4,4.3,4.5c1.8,1,3.8,1.5,6.1,1.5c2.5,0,4.6-0.6,6.3-1.8c1.7-1.2,3-2.7,3.9-4.5l6.2,2.9
				c-1,1.9-2.3,3.7-3.9,5.1c-1.6,1.5-3.5,2.6-5.7,3.4C704.5,263.7,702,264.1,699.3,264.1z M688.3,241.5l-1.4-1.1h23.7l-1.4,1.1
				c0-2.2-0.4-4.1-1.3-5.7c-0.9-1.6-2.1-2.8-3.6-3.6s-3.2-1.2-5-1.2c-1.8,0-3.5,0.4-5.2,1.2c-1.7,0.8-3,2-4.1,3.6
				C688.8,237.3,688.3,239.2,688.3,241.5z"/>
			<path class="st0" d="M738.7,264.1c-3.4,0-6.4-0.8-8.9-2.5c-2.5-1.6-4.5-3.9-5.9-6.9s-2.1-6.4-2.1-10.3c0-3.9,0.7-7.4,2.1-10.3
				s3.4-5.2,5.9-6.9c2.5-1.7,5.5-2.5,8.9-2.5c3.2,0,5.9,0.8,8.2,2.5c2.3,1.6,4.1,3.9,5.4,6.9c1.2,2.9,1.9,6.4,1.9,10.3
				c0,3.9-0.6,7.3-1.9,10.3c-1.3,3-3,5.2-5.4,6.9C744.6,263.3,741.9,264.1,738.7,264.1z M740.4,257.7c2.1,0,3.9-0.6,5.5-1.7
				c1.6-1.1,2.8-2.7,3.8-4.7c0.9-2,1.3-4.3,1.3-6.9c0-2.6-0.5-4.9-1.3-6.9c-0.9-2-2.2-3.5-3.8-4.7c-1.6-1.1-3.5-1.7-5.6-1.7
				c-2.2,0-4.2,0.6-5.9,1.7c-1.7,1.1-3,2.7-4,4.7c-1,2-1.4,4.3-1.4,6.9c0,2.6,0.5,4.9,1.5,6.9c1,2,2.3,3.5,4,4.7
				C736.2,257.1,738.2,257.7,740.4,257.7z M751,278.2v-45.5l0.4-7h6.7v52.5H751z"/>
			<path class="st0" d="M766.5,244.9v-19.2h7.1v19.2H766.5z M773.7,244.9c0,3.4,0.4,5.9,1.2,7.7c0.8,1.8,1.9,3.1,3.3,3.8
				c1.4,0.7,3,1.1,4.7,1.1c3,0,5.4-1.1,7.1-3.2c1.7-2.1,2.5-5.2,2.5-9.1h3.1c0,4-0.6,7.3-1.8,10.2c-1.2,2.8-2.8,5-5,6.5
				c-2.2,1.5-4.8,2.2-7.9,2.2c-2.9,0-5.4-0.6-7.6-1.8c-2.2-1.2-3.9-3.1-5-5.6c-1.2-2.5-1.8-5.8-1.8-9.9v-1.9H773.7z M792.9,263.2
				l-0.5-6.9v-30.6h7v37.5H792.9z"/>
			<path class="st0" d="M813.6,217.8c-1.2,0-2.2-0.4-3-1.3c-0.9-0.9-1.3-1.9-1.3-3c0-1.2,0.4-2.2,1.3-3c0.8-0.8,1.8-1.2,3-1.2
				c1.2,0,2.2,0.4,3,1.2c0.8,0.8,1.2,1.8,1.2,3c0,1.2-0.4,2.2-1.2,3C815.8,217.3,814.8,217.8,813.6,217.8z M810,263.2v-37.5h7.1
				v37.5H810z"/>
			<path class="st0" d="M823.8,231.9v-6.2H848v6.2H823.8z M842,264.1c-3.8,0-6.7-1-8.7-2.9c-2.1-1.9-3.1-4.7-3.1-8.3V214h7.1v37.9
				c0,1.9,0.5,3.3,1.4,4.2c0.9,1,2.3,1.5,4,1.5c0.5,0,1.1-0.1,1.7-0.3c0.6-0.2,1.3-0.6,2.2-1.2l2.7,5.5c-1.3,0.9-2.5,1.5-3.7,1.9
				S843.2,264.1,842,264.1z"/>
			<path class="st0" d="M868.4,263.2L852,225.7h7.6l13.6,32.5l2.2,5H868.4z M860.9,279.1c-1.1,0-2.3-0.2-3.6-0.6
				c-1.3-0.4-2.7-0.9-4.1-1.6l2.6-5.8c1.1,0.5,2.1,0.9,2.9,1.1c0.8,0.2,1.5,0.4,2,0.4c1.2,0,2.3-0.4,3.2-1c0.9-0.7,1.6-1.7,2.1-2.9
				l4.3-10.3l13.4-32.6h7.6l-17.8,42.2c-1,2.3-2,4.3-3,6c-1.1,1.7-2.3,3-3.9,3.9C865.2,278.7,863.2,279.1,860.9,279.1z"/>
			<path class="st0" d="M912.8,243.9v-6.1H947v6.1H912.8z M926.9,258v-34.2h6.1V258H926.9z"/>
			<path class="st0" d="M981.1,264.1c-4.5,0-7.9-1-10.4-3c-2.5-2-3.7-4.8-3.7-8.4c0-3.8,1.3-6.8,3.9-8.8c2.6-2,6.2-3,10.8-3H992v5.6
				h-8.5c-3.5,0-5.9,0.5-7.3,1.6c-1.4,1.1-2.1,2.6-2.1,4.5c0,1.8,0.7,3.1,2,4.1c1.3,1,3.2,1.5,5.5,1.5c2,0,3.8-0.4,5.3-1.3
				c1.5-0.9,2.7-2.1,3.5-3.7c0.8-1.6,1.3-3.4,1.3-5.5h2.5c0,5.1-1.1,9.1-3.3,12.1C988.9,262.6,985.5,264.1,981.1,264.1z
				 M992.1,263.2l-0.3-6.5v-13c0-2.7-0.3-5-0.9-6.9c-0.6-1.8-1.6-3.2-2.8-4.2c-1.3-0.9-3-1.4-5.1-1.4c-2,0-3.6,0.4-5.1,1.2
				c-1.4,0.8-2.6,2.1-3.6,3.8l-6.3-2.4c0.9-1.7,2-3.2,3.4-4.5c1.3-1.3,3-2.4,4.9-3.1c1.9-0.8,4.1-1.2,6.7-1.2c3.5,0,6.5,0.7,8.8,2.1
				c2.3,1.4,4.1,3.4,5.3,6.1c1.2,2.7,1.7,5.9,1.7,9.8l-0.1,20.4H992.1z"/>
			<path class="st0" d="M1022.6,262.7c-3.4,0-6.4-0.8-8.9-2.4c-2.5-1.6-4.5-3.8-5.9-6.6c-1.4-2.8-2.1-6.1-2.1-9.8
				c0-3.8,0.7-7.2,2.1-10c1.4-2.8,3.4-5.1,5.9-6.7c2.5-1.6,5.5-2.4,8.9-2.4c3.1,0,5.8,0.8,8.1,2.4c2.3,1.6,4.1,3.8,5.4,6.7
				c1.3,2.9,1.9,6.2,1.9,10.1c0,3.7-0.6,7-1.9,9.8c-1.3,2.8-3.1,5-5.4,6.6S1025.7,262.7,1022.6,262.7z M1023.3,279.2
				c-2.5,0-4.8-0.2-6.8-0.7c-2.1-0.5-3.8-1-5.2-1.6c-1.4-0.6-2.5-1.1-3.1-1.6l2.7-5.8c0.6,0.4,1.6,0.9,2.8,1.4s2.6,1,4.2,1.3
				c1.6,0.4,3.4,0.6,5.3,0.6c2.3,0,4.3-0.5,6.1-1.4c1.8-0.9,3.2-2.4,4.2-4.3c1-2,1.5-4.5,1.5-7.5v-33.9h7.1v33.8
				c0,4.3-0.8,7.9-2.4,10.8c-1.6,2.9-3.9,5.1-6.7,6.6C1030.3,278.4,1027,279.2,1023.3,279.2z M1024.4,256.7c2.1,0,3.9-0.6,5.5-1.7
				c1.5-1.1,2.8-2.6,3.7-4.6s1.3-4.1,1.3-6.6c0-2.5-0.4-4.7-1.3-6.6c-0.9-1.9-2.1-3.4-3.7-4.5c-1.6-1.1-3.4-1.6-5.5-1.6
				c-2.2,0-4.1,0.5-5.8,1.6c-1.7,1.1-3,2.6-3.9,4.5c-1,1.9-1.4,4.1-1.4,6.6c0,2.5,0.5,4.7,1.5,6.6s2.3,3.4,4,4.6
				C1020.3,256.1,1022.2,256.7,1024.4,256.7z"/>
			<path class="st0" d="M1068.7,264.1c-3.7,0-6.9-0.8-9.7-2.5c-2.8-1.7-5-4-6.6-6.9c-1.6-3-2.4-6.3-2.4-10.2c0-3.8,0.8-7.2,2.4-10.2
				c1.6-2.9,3.8-5.3,6.6-6.9c2.8-1.7,6.1-2.5,9.7-2.5c3.5,0,6.5,0.9,9.1,2.6c2.6,1.7,4.6,4.2,6.1,7.3c1.5,3.2,2.2,6.9,2.2,11.2
				h-30.3l1.3-1.1c0,2.7,0.5,5,1.6,6.9c1,1.9,2.5,3.4,4.3,4.5c1.8,1,3.8,1.5,6.1,1.5c2.5,0,4.6-0.6,6.3-1.8c1.7-1.2,3-2.7,3.9-4.5
				l6.2,2.9c-1,1.9-2.3,3.7-3.9,5.1c-1.6,1.5-3.5,2.6-5.7,3.4C1073.8,263.7,1071.4,264.1,1068.7,264.1z M1057.7,241.5l-1.4-1.1h23.7
				l-1.4,1.1c0-2.2-0.5-4.1-1.3-5.7c-0.9-1.6-2.1-2.8-3.6-3.6s-3.2-1.2-5-1.2c-1.8,0-3.5,0.4-5.2,1.2c-1.7,0.8-3,2-4.1,3.6
				C1058.2,237.3,1057.7,239.2,1057.7,241.5z"/>
			<path class="st0" d="M1097.3,217.8c-1.2,0-2.2-0.4-3-1.3c-0.9-0.9-1.3-1.9-1.3-3c0-1.2,0.4-2.2,1.3-3c0.8-0.8,1.8-1.2,3-1.2
				c1.2,0,2.2,0.4,3,1.2c0.8,0.8,1.2,1.8,1.2,3c0,1.2-0.4,2.2-1.2,3C1099.5,217.3,1098.5,217.8,1097.3,217.8z M1093.7,263.2v-37.5
				h7.1v37.5H1093.7z"/>
			<path class="st0" d="M1124.6,264.1c-2.7,0-5-0.4-7.1-1.2c-2.1-0.8-3.8-1.9-5.2-3.2c-1.4-1.3-2.5-2.9-3.2-4.6l6.2-2.7
				c0.8,1.5,2,2.8,3.6,3.8c1.6,1,3.4,1.5,5.3,1.5c2.1,0,3.9-0.4,5.3-1.2c1.4-0.8,2.1-1.9,2.1-3.4c0-1.4-0.5-2.5-1.6-3.3
				c-1.1-0.8-2.6-1.5-4.6-2l-3.5-0.9c-3.5-0.9-6.2-2.4-8.1-4.3s-2.9-4.1-2.9-6.5c0-3.6,1.2-6.5,3.5-8.5c2.3-2,5.8-3,10.4-3
				c2.2,0,4.3,0.3,6.2,1c1.9,0.7,3.5,1.6,4.8,2.8c1.3,1.2,2.3,2.6,2.8,4.3l-6,2.7c-0.6-1.5-1.6-2.6-3.1-3.3
				c-1.5-0.7-3.2-1.1-5.1-1.1c-2,0-3.6,0.4-4.7,1.3c-1.2,0.9-1.7,2.1-1.7,3.6c0,0.9,0.5,1.7,1.5,2.4c1,0.8,2.4,1.4,4.3,1.9l4,1
				c2.4,0.6,4.5,1.5,6.1,2.7c1.6,1.2,2.8,2.6,3.6,4.1c0.8,1.5,1.2,3.1,1.2,4.8c0,2.2-0.6,4.2-1.8,5.9c-1.2,1.7-2.9,3-5,3.9
				C1129.8,263.7,1127.3,264.1,1124.6,264.1z"/>
			<path class="st0" d="M1146.2,263.2v-37.5h6.7l0.3,5.2c1.2-2,2.7-3.5,4.5-4.5c1.8-1,3.9-1.5,6.2-1.5c3,0,5.5,0.7,7.6,2.1
				c2.1,1.4,3.6,3.5,4.6,6.3c1.1-2.7,2.6-4.8,4.7-6.2c2-1.4,4.4-2.1,7.1-2.1c4.2,0,7.6,1.4,10,4.2c2.4,2.8,3.6,7,3.5,12.8v21.5h-7.1
				V244c0-3.4-0.4-6-1.1-7.8c-0.7-1.8-1.7-3-2.9-3.7s-2.6-1.1-4.2-1.1c-2.8,0-5,1.1-6.5,3.2c-1.5,2.2-2.3,5.2-2.3,9.1v19.5h-7.1V244
				c0-3.4-0.4-6-1.1-7.8c-0.7-1.8-1.7-3-2.9-3.7c-1.2-0.7-2.6-1.1-4.2-1.1c-2.8,0-5,1.1-6.5,3.2c-1.5,2.2-2.3,5.2-2.3,9.1v19.5
				H1146.2z"/>
			<path class="st0" d="M694.8,340.1c-4.5,0-7.9-1-10.4-3c-2.5-2-3.7-4.8-3.7-8.4c0-3.8,1.3-6.8,3.9-8.8c2.6-2,6.2-3,10.8-3h10.4
				v5.6h-8.5c-3.4,0-5.9,0.5-7.3,1.6c-1.4,1.1-2.1,2.6-2.1,4.5c0,1.8,0.7,3.1,2,4.1c1.3,1,3.2,1.5,5.5,1.5c2,0,3.8-0.4,5.3-1.3
				c1.5-0.9,2.7-2.1,3.5-3.7c0.8-1.6,1.3-3.4,1.3-5.5h2.5c0,5.1-1.1,9.1-3.3,12.1C702.5,338.6,699.2,340.1,694.8,340.1z
				 M705.8,339.2l-0.3-6.5v-13c0-2.7-0.3-5-0.9-6.9s-1.6-3.2-2.8-4.2c-1.3-0.9-3-1.4-5.1-1.4c-2,0-3.6,0.4-5.1,1.2
				c-1.4,0.8-2.6,2.1-3.6,3.8l-6.3-2.4c0.9-1.7,2-3.2,3.4-4.5c1.3-1.3,3-2.4,4.9-3.1c1.9-0.8,4.1-1.2,6.7-1.2c3.5,0,6.5,0.7,8.8,2.1
				c2.3,1.4,4.1,3.4,5.3,6.1c1.2,2.7,1.7,5.9,1.7,9.8l-0.1,20.4H705.8z"/>
			<path class="st0" d="M730,339.2l-12.8-37.5h7.2l12.4,37.5H730z M730.5,339.2l12.5-37.5h6.4l-12.3,37.5H730.5z M755.8,339.2
				l-12.3-37.5h6.5l12.4,37.5H755.8z M755.8,339.2l12.7-37.5h7.1l-12.8,37.5H755.8z"/>
			<path class="st0" d="M793.3,340.1c-4.5,0-7.9-1-10.4-3c-2.5-2-3.7-4.8-3.7-8.4c0-3.8,1.3-6.8,3.9-8.8c2.6-2,6.2-3,10.8-3h10.4
				v5.6h-8.5c-3.5,0-5.9,0.5-7.3,1.6c-1.4,1.1-2.1,2.6-2.1,4.5c0,1.8,0.7,3.1,2,4.1c1.3,1,3.2,1.5,5.5,1.5c2,0,3.8-0.4,5.3-1.3
				c1.5-0.9,2.7-2.1,3.5-3.7c0.8-1.6,1.3-3.4,1.3-5.5h2.5c0,5.1-1.1,9.1-3.3,12.1C801.1,338.6,797.8,340.1,793.3,340.1z
				 M804.3,339.2l-0.3-6.5v-13c0-2.7-0.3-5-0.9-6.9c-0.6-1.8-1.6-3.2-2.8-4.2c-1.3-0.9-3-1.4-5.1-1.4c-2,0-3.6,0.4-5.1,1.2
				c-1.4,0.8-2.6,2.1-3.6,3.8l-6.3-2.4c0.9-1.7,2-3.2,3.4-4.5c1.4-1.3,3-2.4,4.9-3.1c1.9-0.8,4.1-1.2,6.7-1.2c3.5,0,6.5,0.7,8.8,2.1
				c2.3,1.4,4.1,3.4,5.3,6.1s1.7,5.9,1.7,9.8l-0.1,20.4H804.3z"/>
			<path class="st0" d="M820,339.2v-37.5h7.1v37.5H820z M824.4,319c0-4,0.8-7.4,2.3-9.9s3.5-4.4,6-5.7c2.4-1.2,5-1.9,7.7-1.9v6.8
				c-2.2,0-4.4,0.3-6.4,1c-2,0.7-3.7,1.8-5,3.3c-1.3,1.5-1.9,3.6-1.9,6.2L824.4,319z"/>
			<path class="st0" d="M862.8,340.1c-3.7,0-6.9-0.8-9.7-2.5c-2.8-1.7-5-4-6.6-6.9c-1.6-3-2.4-6.3-2.4-10.2c0-3.8,0.8-7.2,2.4-10.2
				c1.6-2.9,3.8-5.3,6.6-6.9c2.8-1.7,6.1-2.5,9.7-2.5c3.4,0,6.5,0.9,9.1,2.6s4.6,4.2,6.1,7.3c1.5,3.2,2.2,6.9,2.2,11.2h-30.3
				l1.3-1.1c0,2.7,0.5,5,1.6,6.9c1,1.9,2.5,3.4,4.3,4.5c1.8,1,3.8,1.5,6.1,1.5c2.5,0,4.6-0.6,6.3-1.8c1.7-1.2,3-2.7,3.9-4.5l6.2,2.9
				c-1,1.9-2.3,3.7-3.9,5.1c-1.6,1.5-3.5,2.6-5.7,3.4C867.9,339.7,865.5,340.1,862.8,340.1z M851.7,317.5l-1.4-1.1H874l-1.4,1.1
				c0-2.2-0.4-4.1-1.3-5.7c-0.9-1.6-2.1-2.8-3.6-3.6s-3.2-1.2-5-1.2c-1.8,0-3.5,0.4-5.2,1.2c-1.7,0.8-3,2-4.1,3.6
				C852.3,313.3,851.7,315.2,851.7,317.5z"/>
			<path class="st0" d="M887.3,339.2v-37.5h6.7l0.5,6.9v30.6H887.3z M913.2,320c0-3.4-0.4-6-1.2-7.8c-0.8-1.8-1.9-3-3.2-3.7
				c-1.4-0.7-3-1.1-4.8-1.1c-3.1,0-5.4,1.1-7.1,3.2c-1.7,2.2-2.5,5.2-2.5,9.1h-3.1c0-3.9,0.6-7.3,1.8-10.2c1.2-2.8,2.8-5,5-6.5
				s4.8-2.2,7.8-2.2c3,0,5.5,0.6,7.7,1.8c2.2,1.2,3.8,3.1,5,5.6c1.2,2.5,1.8,5.8,1.8,9.9v1.9H913.2z M913.2,339.2V320h7.1v19.2
				H913.2z"/>
			<path class="st0" d="M945.9,340.1c-3.7,0-6.9-0.8-9.7-2.5c-2.8-1.7-5-4-6.6-6.9c-1.6-3-2.4-6.3-2.4-10.2c0-3.8,0.8-7.2,2.4-10.2
				c1.6-2.9,3.8-5.3,6.6-6.9c2.8-1.7,6.1-2.5,9.7-2.5c3.5,0,6.5,0.9,9.1,2.6c2.6,1.7,4.6,4.2,6.1,7.3c1.5,3.2,2.2,6.9,2.2,11.2
				h-30.3l1.3-1.1c0,2.7,0.5,5,1.6,6.9c1,1.9,2.5,3.4,4.3,4.5c1.8,1,3.8,1.5,6.1,1.5c2.5,0,4.6-0.6,6.3-1.8c1.7-1.2,3-2.7,3.9-4.5
				l6.2,2.9c-1,1.9-2.3,3.7-3.9,5.1c-1.6,1.5-3.5,2.6-5.7,3.4C951.1,339.7,948.6,340.1,945.9,340.1z M934.9,317.5l-1.4-1.1h23.7
				l-1.4,1.1c0-2.2-0.5-4.1-1.3-5.7c-0.9-1.6-2.1-2.8-3.6-3.6s-3.2-1.2-5-1.2c-1.8,0-3.5,0.4-5.2,1.2c-1.7,0.8-3,2-4.1,3.6
				C935.4,313.3,934.9,315.2,934.9,317.5z"/>
			<path class="st0" d="M983.9,340.1c-2.7,0-5-0.4-7.1-1.2c-2.1-0.8-3.8-1.9-5.2-3.2c-1.4-1.3-2.5-2.9-3.2-4.6l6.2-2.7
				c0.8,1.5,2,2.8,3.6,3.8c1.6,1,3.4,1.5,5.3,1.5c2.1,0,3.9-0.4,5.3-1.2c1.4-0.8,2.1-1.9,2.1-3.4c0-1.4-0.5-2.5-1.6-3.3
				c-1.1-0.8-2.6-1.5-4.6-2l-3.5-0.9c-3.5-0.9-6.2-2.4-8.1-4.3s-2.9-4.1-2.9-6.5c0-3.6,1.2-6.5,3.5-8.5c2.3-2,5.8-3,10.4-3
				c2.2,0,4.3,0.3,6.2,1c1.9,0.7,3.5,1.6,4.8,2.8c1.3,1.2,2.3,2.6,2.8,4.3l-6,2.7c-0.6-1.5-1.6-2.6-3.1-3.3
				c-1.5-0.7-3.2-1.1-5.1-1.1c-2,0-3.6,0.4-4.7,1.3c-1.2,0.9-1.7,2.1-1.7,3.6c0,0.9,0.5,1.7,1.5,2.4c1,0.8,2.4,1.4,4.3,1.9l4,1
				c2.4,0.6,4.5,1.5,6.1,2.7c1.6,1.2,2.8,2.6,3.6,4.1c0.8,1.5,1.2,3.1,1.2,4.8c0,2.2-0.6,4.2-1.8,5.9c-1.2,1.7-2.9,3-5,3.9
				C989,339.7,986.6,340.1,983.9,340.1z"/>
			<path class="st0" d="M1018.8,340.1c-2.7,0-5-0.4-7.1-1.2c-2.1-0.8-3.8-1.9-5.2-3.2c-1.4-1.3-2.5-2.9-3.2-4.6l6.2-2.7
				c0.8,1.5,2,2.8,3.6,3.8c1.6,1,3.4,1.5,5.3,1.5c2.1,0,3.9-0.4,5.3-1.2c1.4-0.8,2.1-1.9,2.1-3.4c0-1.4-0.5-2.5-1.6-3.3
				c-1.1-0.8-2.6-1.5-4.6-2l-3.5-0.9c-3.5-0.9-6.2-2.4-8.1-4.3s-2.9-4.1-2.9-6.5c0-3.6,1.2-6.5,3.5-8.5c2.3-2,5.8-3,10.4-3
				c2.2,0,4.3,0.3,6.2,1c1.9,0.7,3.5,1.6,4.8,2.8c1.3,1.2,2.3,2.6,2.8,4.3l-6,2.7c-0.6-1.5-1.6-2.6-3.1-3.3
				c-1.5-0.7-3.2-1.1-5.1-1.1c-2,0-3.6,0.4-4.7,1.3c-1.2,0.9-1.7,2.1-1.7,3.6c0,0.9,0.5,1.7,1.5,2.4c1,0.8,2.4,1.4,4.3,1.9l4,1
				c2.4,0.6,4.5,1.5,6.1,2.7c1.6,1.2,2.8,2.6,3.6,4.1c0.8,1.5,1.2,3.1,1.2,4.8c0,2.2-0.6,4.2-1.8,5.9c-1.2,1.7-2.9,3-5,3.9
				C1023.9,339.7,1021.5,340.1,1018.8,340.1z"/>
		</g>
	</g>
</g>
</svg>
