<?xml version="1.0" encoding="UTF-8"?><svg id="Layer_1" xmlns="http://www.w3.org/2000/svg" viewBox="0 0 825.01 191.63"><defs><style>.cls-1{fill:#fff;stroke-width:0px;}</style></defs><path class="cls-1" d="m439.25,128.02c-5.29-3.03-11.08-4.55-17.36-4.55s-12.07,1.52-17.36,4.55c-5.29,3.03-9.48,7.15-12.56,12.35-3.08,5.2-4.62,10.93-4.62,17.18s1.54,11.98,4.62,17.18c3.08,5.2,7.26,9.32,12.56,12.35,5.3,3.03,11.08,4.55,17.36,4.55s12.07-1.52,17.36-4.55c5.29-3.03,9.48-7.15,12.56-12.35,3.08-5.2,4.62-10.92,4.62-17.18s-1.54-11.98-4.62-17.18c-3.08-5.2-7.26-9.32-12.56-12.35Zm1.25,40.58c-1.88,3.34-4.45,5.96-7.71,7.85-3.26,1.89-6.89,2.83-10.9,2.83s-7.63-.94-10.9-2.83c-3.26-1.89-5.83-4.5-7.71-7.85-1.88-3.34-2.82-7.02-2.82-11.05s.94-7.71,2.82-11.05c1.88-3.34,4.45-5.96,7.71-7.85,3.26-1.89,6.9-2.83,10.9-2.83s7.63.94,10.9,2.83c3.26,1.89,5.83,4.5,7.71,7.85,1.88,3.34,2.82,7.03,2.82,11.05s-.94,7.71-2.82,11.05Z"/><rect class="cls-1" x="462.86" y="120.4" width="12.56" height="69.64"/><path class="cls-1" d="m519.08,149.44c-1.03-1.19-2.18-2.25-3.46-3.18-3.05-2.2-6.6-3.3-10.67-3.3s-8.05,1.07-11.4,3.2c-3.36,2.14-5.99,5.05-7.9,8.73-1.91,3.68-2.86,7.75-2.86,12.21s.95,8.53,2.86,12.21c1.91,3.68,4.54,6.59,7.9,8.73,3.35,2.14,7.16,3.2,11.4,3.2s7.62-1.1,10.67-3.3c1.64-1.18,3.06-2.58,4.29-4.2v6.28h11.73v-69.64h-12.56v29.04Zm-.78,24.12c-1.08,1.95-2.56,3.47-4.43,4.55-1.88,1.08-3.96,1.62-6.23,1.62s-4.36-.54-6.23-1.62c-1.88-1.08-3.36-2.6-4.43-4.55-1.08-1.95-1.62-4.1-1.62-6.45s.54-4.49,1.62-6.41c1.08-1.92,2.55-3.44,4.43-4.55,1.88-1.11,3.95-1.67,6.23-1.67s4.35.56,6.23,1.67c1.88,1.11,3.35,2.63,4.43,4.55,1.08,1.92,1.62,4.05,1.62,6.4h0c0,2.36-.54,4.51-1.62,6.46Z"/><path class="cls-1" d="m594.86,153.09c-3.26-1.8-6.86-2.69-10.8-2.69h-.09c-2.09,0-3.89-.7-5.4-2.09-1.51-1.39-2.26-3.14-2.26-5.25s.72-3.85,2.17-5.25c1.45-1.39,3.28-2.09,5.49-2.09s4.05.7,5.49,2.09c1.45,1.39,2.17,3.14,2.17,5.25h12.93c0-3.71-.94-7.06-2.82-10.03-1.88-2.97-4.39-5.31-7.53-7.01-3.14-1.7-6.59-2.55-10.34-2.55s-7.11.85-10.25,2.55c-3.14,1.7-5.63,4.04-7.48,7.01-1.85,2.97-2.77,6.31-2.77,10.03s.92,6.98,2.77,9.98c1.85,3,4.34,5.35,7.48,7.06,3.14,1.7,6.62,2.55,10.43,2.55h.09c2.4,0,4.4.78,6,2.32,1.6,1.55,2.4,3.53,2.4,5.94s-.83,4.4-2.49,5.94c-1.66,1.55-3.73,2.32-6.19,2.32s-4.49-.79-6.09-2.37c-1.6-1.58-2.4-3.54-2.4-5.9h-12.93c0,3.84.95,7.32,2.86,10.45,1.91,3.13,4.49,5.59,7.76,7.38,3.26,1.8,6.86,2.69,10.8,2.69s7.57-.9,10.9-2.69c3.32-1.79,5.94-4.25,7.85-7.38,1.91-3.12,2.86-6.61,2.86-10.45s-.95-7.32-2.86-10.45c-1.91-3.12-4.49-5.59-7.76-7.38Z"/><path class="cls-1" d="m622.86,145.71c-3.85,2.2-6.9,5.18-9.14,8.96-2.25,3.78-3.37,7.89-3.37,12.35s1.12,8.57,3.37,12.35c2.25,3.78,5.29,6.76,9.14,8.96,3.85,2.2,8.05,3.3,12.6,3.3,3.01,0,5.85-.53,8.56-1.49v-13.71c-.66.61-1.38,1.17-2.18,1.64-1.91,1.11-4.03,1.67-6.37,1.67s-4.46-.56-6.37-1.67c-1.91-1.11-3.42-2.63-4.53-4.55-1.11-1.92-1.66-4.09-1.66-6.5s.55-4.5,1.66-6.45c1.11-1.95,2.62-3.48,4.53-4.6,1.91-1.11,4.03-1.67,6.37-1.67s4.46.56,6.37,1.67c.8.47,1.52,1.03,2.18,1.65v-13.72c-2.7-.96-5.54-1.49-8.56-1.49-4.56,0-8.76,1.1-12.6,3.3Z"/><path class="cls-1" d="m686.27,145.43c-2.59-1.58-5.51-2.37-8.77-2.37-4.06,0-7.5,1.22-10.3,3.67-1.36,1.19-2.45,2.56-3.28,4.1v-30.52h-12.56v69.64h12.56v-25.72c0-2.85.85-5.14,2.54-6.87,1.69-1.73,3.86-2.6,6.51-2.6s4.82.84,6.51,2.51c1.69,1.67,2.54,3.99,2.54,6.96v25.72h12.56v-28.6c0-3.53-.74-6.67-2.22-9.42-1.48-2.75-3.51-4.92-6.09-6.5Z"/><path class="cls-1" d="m738.62,145.71c-3.85-2.2-8.05-3.3-12.6-3.3s-8.76,1.1-12.6,3.3c-3.85,2.2-6.9,5.19-9.14,8.96-2.25,3.78-3.37,7.89-3.37,12.35s1.12,8.57,3.37,12.35c2.25,3.78,5.29,6.76,9.14,8.96,3.85,2.2,8.05,3.3,12.6,3.3s8.76-1.1,12.6-3.3c3.85-2.2,6.89-5.18,9.14-8.96,2.25-3.77,3.37-7.89,3.37-12.35s-1.12-8.57-3.37-12.35c-2.25-3.77-5.3-6.76-9.14-8.96Zm-1.71,27.81c-1.11,1.92-2.62,3.44-4.53,4.55-1.91,1.11-4.03,1.67-6.37,1.67s-4.46-.56-6.37-1.67c-1.91-1.11-3.42-2.63-4.53-4.55-1.11-1.92-1.66-4.09-1.66-6.5s.55-4.5,1.66-6.45c1.11-1.95,2.62-3.48,4.53-4.6,1.91-1.11,4.03-1.67,6.37-1.67s4.46.56,6.37,1.67c1.91,1.11,3.42,2.65,4.53,4.6,1.11,1.95,1.66,4.1,1.66,6.45s-.55,4.58-1.66,6.5Z"/><path class="cls-1" d="m793.05,145.71c-3.85-2.2-8.05-3.3-12.6-3.3s-8.76,1.1-12.6,3.3c-3.85,2.2-6.9,5.19-9.14,8.96-2.25,3.78-3.37,7.89-3.37,12.35s1.12,8.57,3.37,12.35c2.25,3.78,5.29,6.76,9.14,8.96,3.85,2.2,8.05,3.3,12.6,3.3s8.76-1.1,12.6-3.3c3.85-2.2,6.89-5.18,9.14-8.96,2.25-3.77,3.37-7.89,3.37-12.35s-1.12-8.57-3.37-12.35c-2.25-3.77-5.3-6.76-9.14-8.96Zm-1.71,27.81c-1.11,1.92-2.62,3.44-4.53,4.55-1.91,1.11-4.03,1.67-6.37,1.67s-4.46-.56-6.37-1.67c-1.91-1.11-3.42-2.63-4.53-4.55-1.11-1.92-1.66-4.09-1.66-6.5s.55-4.5,1.66-6.45c1.11-1.95,2.62-3.48,4.53-4.6,1.91-1.11,4.03-1.67,6.37-1.67s4.46.56,6.37,1.67c1.91,1.11,3.42,2.65,4.53,4.6,1.11,1.95,1.66,4.1,1.66,6.45s-.55,4.58-1.66,6.5Z"/><rect class="cls-1" x="812.46" y="120.31" width="12.56" height="69.64"/><path class="cls-1" d="m243.58,95.81h0c0,26.46-21.45,47.91-47.91,47.91v47.91c52.91,0,95.81-42.89,95.81-95.81h0c0-26.46,21.45-47.91,47.91-47.91V0c-52.91,0-95.81,42.89-95.81,95.81Z"/><path class="cls-1" d="m95.82,0C42.9,0,0,42.9,0,95.81s42.9,95.81,95.82,95.81,95.81-42.9,95.81-95.81S148.73,0,95.82,0Zm47.91,143.72H47.91V47.91h95.81v95.81Z"/></svg>